<svg xmlns="http://www.w3.org/2000/svg" data-name="Layer 1" viewBox="0 0 128 160" x="0px" y="0px"><title>human Anatomy 02 final</title><path d="M83.85919,20.93085C78.59161,15.13318,70.01984,14.3493,66.94757,14.261,50.78644-8.20825,6.42267,2.47626,4.51935,2.94781a1.99932,1.99932,0,0,0,.96143,3.88135C5.92609,6.71838,50.16241-3.931,64.2254,17.357a1.97574,1.97574,0,0,0,1.74072.89612c.1001.00293,9.79883-.28357,14.93164,5.36621C83.53693,26.524,84.52863,30.605,83.846,35.74908a1.98361,1.98361,0,0,0-.00146.51593c.03223.25525,3.24512,25.72235,2.44434,41.86823a1.82324,1.82324,0,0,0,0,.1933c.20306,4.30011.91809,15.30316,3.08252,22.97528C84.05359,94.92627,81.9292,81.8114,83.053,62.13818c.36346-6.36261-1.35626-15.03485-2.96765-22.255l.02429-.08875-.04687-.013c-.26434-1.1828-.5257-2.33014-.77393-3.41687-.56592-2.4776-1.05469-4.61743-1.32129-6.11542-.82959-4.65839-6.166-5.62042-11.81592-6.63861-4.16943-.75171-8.895-1.60339-11.84375-3.95605C41.66925,9.57227,14.27423,7.985,13.11407,7.92249a1.99927,1.99927,0,1,0-.21631,3.99268c.27148.01465,27.27832,1.58191,38.915,10.86511,3.43359,2.73883,8.14044,3.75885,12.47748,4.55481-.13629.06158-.27.12134-.40765.18365-1.09131.49445-2.293,1.0387-3.62646,1.598-7.31494,3.07068-16.87842,1.35791-24.9585-4.469C24.3963,16.78638,10.67511,16.07037,10.096,16.04352a1.99947,1.99947,0,0,0-.18555,3.99463c.13037.00586,13.13379.7038,23.04688,7.85254a33.878,33.878,0,0,0,19.51514,6.71722,24.043,24.043,0,0,0,9.33252-1.8045c1.37061-.575,2.606-1.13434,3.728-1.642,6.10522-2.76208,6.90216-2.96814,8.65656.62054.29327,1.49182.71454,3.34875,1.1994,5.4729.18323.80194.37793,1.65546.577,2.53943-1.12567,4.23431-5.10284,19.93481-6.29083,34.43274a60.81057,60.81057,0,0,0-4.0733-7.42993c-2.52344-3.95605-5.45361-12.93073,3.269-28.59485a1.99953,1.99953,0,0,0-2.20508-2.91833c-.14594.03442-8.99866,2.05145-23.89978,2.59637-12.9917-9.57275-36.50024-12.6958-37.51038-12.8255a1.999,1.999,0,1,0-.51074,3.96533c.20758.027,18.04877,2.39349,30.65161,8.99432a221.16677,221.16677,0,0,1-30.12378-2.0882,1.99936,1.99936,0,1,0-.54492,3.96143c28.95557,3.97949,50.17285,1.50677,58.72656.081-7.292,15.26727-4.00879,24.61444-1.22559,28.978a49.45078,49.45078,0,0,1,6.09473,13.0957c4.19434,14.7597,5.65527,25.85028,4.11328,31.22864-1.42139,4.95911-1.15576,8.82684.78955,11.49573A8.17543,8.17543,0,0,0,79.27472,128h43.69141a1.99941,1.99941,0,0,0,1.99268-1.83038,7.54929,7.54929,0,0,0-4.34863-7.94678c-.22314-.12738-23.95313-12.121-25.02783-12.75354-2.45654-1.44818-4.71582-15.2312-5.29346-27.23547.76758-15.80664-2.08594-39.34918-2.44434-42.21924C88.61945,29.76886,87.27911,24.69556,83.85919,20.93085ZM79.36261,124.00342a4.13619,4.13619,0,0,1-2.93018-1.6283c-1.13916-1.60339-1.19092-4.37091-.1499-8.00287,1.92548-6.71814-.21094-18.53809-2.82721-28.68024-.74469-11.262,2.18976-26.90771,4.3999-36.71558a60.0318,60.0318,0,0,1,1.20465,12.93384c-.35046,6.13385-1.12616,19.81622,1.96252,31.00128-.76746,3.21729-4.68616,23.21777,14.42615,29.81647l4.24884,1.27441Zm14.043-15.10815a1.97937,1.97937,0,0,0,.20709.05316c1.314.759,7.56427,3.8808,13.621,6.90619,4.6748,2.33453,9.97314,4.98053,10.49561,5.29291.25537.17719.561.35535.895.5462a3.87441,3.87441,0,0,1,2.229,2.30774l-7.24139.00037-16.93585-5.07806c-10.50378-3.6275-12.57941-12.1333-12.57886-18.30249A17.29006,17.29006,0,0,0,93.40558,108.89526Z"/></svg>