<svg xmlns="http://www.w3.org/2000/svg" xmlns:xlink="http://www.w3.org/1999/xlink" version="1.1" viewBox="0 0 100 125" xml:space="preserve" fill="currentColor">
    <path d="M61.77,42.145c0,3.965-1.54,7.688-4.334,10.482l-0.639,0.64v14.286c0,1.206,0.976,2.184,2.183,2.184  c1.206,0,2.182-0.978,2.182-2.184V55.045c3.216-3.533,4.974-8.079,4.974-12.9c0-4.82-1.758-9.366-4.974-12.899l0.003-12.467  c0-1.206-0.979-2.184-2.185-2.184c-1.204,0-2.182,0.979-2.182,2.183l-0.001,14.245l0.639,0.64  C60.229,34.457,61.77,38.18,61.77,42.145z"/>
    <path d="M38.846,67.552c0,1.206,0.978,2.184,2.185,2.184c1.205,0,2.183-0.978,2.183-2.184l0.001-14.244l-0.641-0.64  c-5.778-5.78-5.778-15.185,0-20.965l0.641-0.64V16.778c0-1.206-0.978-2.184-2.183-2.184c-1.207,0-2.185,0.978-2.185,2.184v12.508  c-6.629,7.295-6.629,18.503,0,25.798L38.846,67.552z"/>
    <circle cx="50.049" cy="30.164" r="3.153"/>
    <circle cx="45.638" cy="44.591" r="3.153"/>
    <circle cx="45.639" cy="36.68" r="1.77"/>
    <circle cx="53.204" cy="49.196" r="1.769"/>
    <circle cx="55.825" cy="40.675" r="3.153"/>
    <circle cx="50.05" cy="57.492" r="3.153"/>
    <circle cx="50.049" cy="16.5" r="3.153"/>
    <path d="M58.58,76.469c-0.854-0.852-2.234-0.852-3.087,0l-3.307,3.307V69.135c0-1.205-0.978-2.184-2.183-2.184  s-2.182,0.979-2.182,2.184v10.64l-3.305-3.306c-0.852-0.852-2.236-0.852-3.088,0c-0.853,0.853-0.853,2.235,0,3.088l8.574,8.576  l8.576-8.576C59.432,78.704,59.432,77.322,58.58,76.469z"/>
    <path d="M81.68,39.982h-6.956c-1.206,0-2.184,0.978-2.184,2.183c0,1.205,0.978,2.183,2.184,2.183h6.956  c1.206,0,2.184-0.978,2.184-2.183C83.863,40.959,82.886,39.982,81.68,39.982z"/>
    <path d="M72.54,37.61c0.56,0,1.118-0.214,1.544-0.64l4.92-4.919c0.852-0.852,0.852-2.234,0-3.087c-0.854-0.853-2.236-0.853-3.088,0  l-4.919,4.919c-0.854,0.852-0.854,2.235,0,3.087C71.424,37.396,71.981,37.61,72.54,37.61z"/>
    <path d="M74.084,47.359c-0.853-0.853-2.234-0.853-3.087,0c-0.854,0.852-0.854,2.234,0,3.087l4.919,4.919  c0.426,0.427,0.984,0.64,1.544,0.64c0.558,0,1.117-0.213,1.544-0.64c0.852-0.852,0.852-2.234,0-3.087L74.084,47.359z"/>
    <path d="M27.468,42.165c0-1.206-0.978-2.183-2.183-2.183h-6.956c-1.207,0-2.183,0.978-2.183,2.183c0,1.205,0.976,2.183,2.183,2.183  h6.956C26.49,44.348,27.468,43.37,27.468,42.165z"/>
    <path d="M29.012,47.359c-0.853-0.853-2.234-0.853-3.087,0l-4.919,4.919c-0.853,0.853-0.853,2.235,0,3.087  c0.427,0.427,0.984,0.64,1.543,0.64c0.56,0,1.117-0.213,1.544-0.64l4.919-4.919C29.864,49.594,29.864,48.211,29.012,47.359z"/>
    <path d="M25.925,36.97c0.426,0.426,0.984,0.64,1.543,0.64s1.116-0.214,1.544-0.64c0.853-0.852,0.853-2.235,0-3.087l-4.919-4.919  c-0.853-0.853-2.235-0.853-3.087,0c-0.853,0.853-0.853,2.235,0,3.087L25.925,36.97z"/>
</svg>
