<svg xmlns="http://www.w3.org/2000/svg"
     viewBox="-5 -10 110 135"
     fill="currentColor"
     aria-hidden="true"
     focusable="false">
  <path d="m83.801 91.246c2.3516-2.9883 2.5352-6.6367 0.41797-8.3047-2.1211-1.668-5.625-0.63672-7.9766 2.3516-2.3516 2.9883-2.5352 6.6367-0.41797 8.3047 0.6875 0.53906 1.5156 0.79688 2.4062 0.79688 1.8594 0 3.9766-1.1289 5.5703-3.1484zm-6.9961 1.1016c-1.375-1.082-1.0625-3.8633 0.67969-6.0781 1.2539-1.5898 2.9688-2.5312 4.3438-2.5312 0.53516 0 1.0195 0.14453 1.4062 0.44531 1.375 1.082 1.0625 3.8633-0.67969 6.0781-1.7422 2.2148-4.375 3.168-5.75 2.0859zm-56.781-22.406c10.969 9.9961 24.555 15.738 35.473 20.355 6.8711 2.9062 12.805 5.4141 16.418 8.2617 1.2148 0.95703 2.7188 1.4453 4.3867 1.4453 1.0039 0 2.0664-0.17578 3.1641-0.53125 2.8125-0.91016 5.5312-2.8984 7.6641-5.6016 4.4688-5.6719 4.9141-12.801 0.99609-15.887-5.1523-4.0586-12.824-6.6289-20.941-9.3516-11.195-3.7539-23.883-8.0078-33.16-17.141-1.9531-1.9219-3.8398-4.2227-5.6484-6.875 2.3125-0.007813 6.7734-0.26953 10.375-1.9727 1.8672-0.88281 3.3789-2.1406 4.8398-3.3555 2.457-2.043 4.7773-3.9727 8.4922-3.8086 3.3867 0.15234 7.0859 4.082 11.004 8.2461 2.8984 3.0781 5.8906 6.2578 9.1836 8.4414 7.8008 5.1719 25.879 12.332 26.648 12.633 0.09375 0.039063 0.19531 0.054688 0.29297 0.054688 0.31641 0 0.61719-0.19141 0.73828-0.50391 0.16016-0.40625-0.039063-0.86719-0.44531-1.0312-0.1875-0.074218-18.691-7.3984-26.352-12.48-3.1406-2.082-6.0703-5.1953-8.9062-8.207-4.1445-4.4023-8.0586-8.5625-12.09-8.7422-4.3281-0.19141-7 2.0273-9.5781 4.1719-1.3867 1.1523-2.8164 2.3438-4.5039 3.1406-4.0195 1.9023-9.2773 1.8594-10.758 1.8047-1.6094-2.5234-3.1562-5.3359-4.6289-8.4297-0.66016-1.3906-1.2891-2.793-1.8828-4.2031 2.1562 1.0039 5.8516 2.3555 10.152 2.3555 1.0664 0 2.1758-0.082031 3.3008-0.27734 8.1953-1.3984 14.035-7.7891 14.277-8.0625 0.21875-0.24219 0.26562-0.59766 0.12109-0.88672-3.3984-6.7539-3.5469-14.094-0.44922-22.434 0.15234-0.41016-0.058593-0.86719-0.46875-1.0195-0.41016-0.15234-0.86719 0.058594-1.0195 0.46875-3.1367 8.4492-3.0469 16.25 0.27344 23.195-1.3711 1.375-6.4531 6.0586-13 7.1758-6.8555 1.168-12.824-2.0234-14.117-2.7812-5.5234-13.863-7.8828-27.297-7.9102-27.449-0.074219-0.43359-0.48438-0.72266-0.91797-0.64844-0.43359 0.074219-0.72266 0.48438-0.64844 0.91797 0.03125 0.17969 3.2148 18.312 10.848 34.332 3.5039 7.3516 7.4258 13.191 11.66 17.355 9.543 9.3906 22.414 13.707 33.77 17.512 6.0234 2.0195 11.797 3.957 16.391 6.4531-3.4258 0.26172-7.2773 2.4297-10.156 6.082-3.2188 4.0859-4.3477 8.9219-3.2695 12.465-3.6133-2.1094-8.3047-4.0898-13.527-6.3008-10.809-4.5664-24.254-10.254-35.023-20.066-9.1445-8.3281-15.688-20.844-19.566-29.879-0.17188-0.40234-0.64063-0.58984-1.043-0.41797-0.40234 0.17188-0.58984 0.64062-0.41797 1.043 3.9453 9.1797 10.605 21.91 19.961 30.434zm54.137 13.711c3.9258-4.9844 9.75-6.9688 12.984-4.4258 3.2305 2.5469 2.668 8.6719-1.2617 13.66-1.9375 2.4609-4.3906 4.2617-6.9023 5.0742-2.4023 0.77734-4.5625 0.54687-6.082-0.64844-3.2305-2.5469-2.668-8.6758 1.2617-13.66zm-18.832-67.988c-0.13672 0.097657-0.30078 0.15234-0.46484 0.15234-0.074219 0-0.14453-0.011718-0.21875-0.03125-0.23438-0.066406-0.42578-0.23828-0.51562-0.46094-2.0234-4.9219-2.0234-9.9102 0-14.832 0.16797-0.40625 0.62891-0.59766 1.0352-0.43359 0.40625 0.16797 0.59766 0.62891 0.43359 1.0352-1.7305 4.207-1.8477 8.4727-0.35938 12.688 10.977-7.6055 24.996-10.773 44-9.9609 0.4375 0.019532 0.77734 0.39063 0.75781 0.82813-0.019532 0.4375-0.38672 0.78125-0.82812 0.75781-19.113-0.8125-33.043 2.4453-43.84 10.258zm44.652 40.266c-0.082031 0.37109-0.41016 0.625-0.77344 0.625-0.054687 0-0.11328-0.007813-0.17188-0.019532-7.082-1.5469-13.531-3.9688-19.715-7.4062-1.75-0.97266-2.457-3.1641-1.6055-4.9844l3.5312-7.582c0.72266-1.5547 2.3516-2.4297 4.0547-2.1836 4.1758 0.60547 8.5938 0.85547 13.895 0.78125 0.44531-0.007812 0.79688 0.34375 0.80469 0.78125s-0.34375 0.79688-0.78125 0.80469c-5.3906 0.078125-9.8828-0.17578-14.145-0.79688-1-0.14453-1.9609 0.37109-2.3867 1.2812l-3.5312 7.582c-0.5 1.0703-0.085938 2.3594 0.9375 2.9297 6.0469 3.3594 12.352 5.7305 19.281 7.2422 0.42578 0.09375 0.69922 0.51562 0.60547 0.94531zm-29.781-12.766c0.48047 0.36328 1.0586 0.55469 1.6484 0.55469 0.22266 0 0.44531-0.027344 0.66406-0.082031 0.80469-0.19922 1.4648-0.74609 1.8125-1.4961l2.8828-6.1914c0.33594-0.71875 0.33984-1.543 0.015625-2.2656-0.32422-0.72266-0.94141-1.2656-1.6992-1.4961-2.5664-0.77344-5.2812-1.7422-8.2969-2.9609-1.8633-0.75391-4.0195-0.16797-5.2383 1.4258-1.4023 1.832-1.1953 4.3984 0.48047 5.9727 2.5469 2.3828 5.1445 4.5859 7.7305 6.5391zm-6.9492-11.551c0.55469-0.72656 1.4141-1.1289 2.2969-1.1289 0.36328 0 0.73438 0.070313 1.0859 0.21094 3.0625 1.2344 5.8203 2.2188 8.4336 3.0078 0.32031 0.097656 0.57422 0.32031 0.71094 0.625 0.13672 0.30859 0.13281 0.64453-0.007813 0.94922l-2.8828 6.1914c-0.14453 0.3125-0.42188 0.54297-0.75781 0.625-0.33984 0.082031-0.69141 0.011719-0.97266-0.19922-2.5391-1.918-5.0977-4.082-7.5977-6.4297-1.082-1.0117-1.2148-2.668-0.30859-3.8516zm36.688-0.5625c-0.125 0.30469-0.42188 0.49219-0.73438 0.49219-0.10156 0-0.20312-0.019531-0.30078-0.058594-0.10938-0.042969-10.965-4.5-19.109-6.3047-1.8086-0.39844-3.0703-1.9727-3.0703-3.8242v-6.6523c0-1.9336 1.3828-3.5586 3.293-3.8672 2.3164-0.375 5.668-0.84375 8.4844-0.92578 5.8945-0.17969 10.754 0.42188 10.801 0.42578 0.43359 0.054687 0.74219 0.44922 0.6875 0.88672-0.054687 0.43359-0.45312 0.74609-0.88672 0.6875-0.046874-0.003906-4.793-0.58984-10.559-0.41406-2.7305 0.082031-6.0078 0.53906-8.2773 0.90625-1.1367 0.18359-1.957 1.1523-1.957 2.3008v6.6484c0 1.1016 0.75 2.0391 1.8242 2.2773 8.2812 1.832 19.258 6.3398 19.371 6.3867 0.40625 0.16406 0.60156 0.62891 0.43359 1.0352zm-35.363-5.8945c1.5898-0.30859 3.1836-0.53125 4.7383-0.66406 1.3633-0.11719 2.3867-1.2305 2.3867-2.5938v-5.8359c0-0.85547-0.42188-1.6602-1.1289-2.1445-0.71094-0.48438-1.6133-0.59375-2.4141-0.28125-2.707 1.0469-5.0273 2.125-6.4961 2.8438-1.5664 0.76953-2.5781 2.3945-2.5781 4.1406 0 1.3828 0.60938 2.6797 1.6758 3.5586 0.83594 0.69141 1.8711 1.0586 2.9336 1.0586 0.29297 0.003907 0.58594-0.023437 0.88281-0.082031zm-2.8047-2.1953c-0.69922-0.57813-1.1016-1.4297-1.1016-2.3359 0-1.1641 0.64844-2.207 1.6914-2.7148 1.4414-0.70703 3.7148-1.7617 6.3711-2.7891 0.12109-0.046875 0.24609-0.070313 0.37109-0.070313 0.20313 0 0.39844 0.0625 0.57422 0.17969 0.28125 0.19141 0.44141 0.49609 0.44141 0.83594v5.8359c0 0.53125-0.40234 0.96484-0.9375 1.0117-1.6094 0.13672-3.2617 0.36719-4.9062 0.68359-0.89453 0.17188-1.8047-0.058594-2.5039-0.63672z"/>
</svg>