<svg xmlns="http://www.w3.org/2000/svg" version="1.1" viewBox="-5.0 -10.0 110.0 135.0">
 <path d="m82.746 57.426h-0.98047v-3.9727c0-0.72266-0.58594-1.3086-1.3086-1.3086h-33.359c-0.72266 0-1.3086 0.58594-1.3086 1.3086v3.9727h-0.98047c-2.1758 0-3.9453 1.7695-3.9453 3.9453 0 2.1758 1.7695 3.9453 3.9453 3.9453h2.0859v17.406c-0.97656 0.90625-1.5898 2.1992-1.5898 3.6328 0 2.7344 2.2266 4.9609 4.9609 4.9609s4.9609-2.2266 4.9609-4.9609c0-1.4336-0.61328-2.7266-1.5898-3.6328v-1.6797h20.121v1.6797c-0.97656 0.90625-1.5898 2.1992-1.5898 3.6328 0 2.7344 2.2266 4.9609 4.9609 4.9609s4.9609-2.2266 4.9609-4.9609c0-1.4336-0.61328-2.7266-1.5898-3.6328v-17.406h2.2383c2.1758 0 3.9453-1.7695 3.9453-3.9453 0-2.1758-1.7695-3.9453-3.9453-3.9453zm-34.344-2.6641h30.746v2.6641h-30.746zm1.8672 33.945c-1.293 0-2.3477-1.0547-2.3477-2.3477s1.0547-2.3477 2.3477-2.3477 2.3477 1.0547 2.3477 2.3477-1.0547 2.3477-2.3477 2.3477zm-0.75781-7.25v-16.137h1.5156v16.137c-0.24609-0.039062-0.5-0.058593-0.75781-0.058593-0.25781 0-0.51172 0.019531-0.75781 0.058593zm24.25-3.0234h-20.121v-2.2461h20.121zm0-4.8633h-20.121v-8.2539h20.121zm3.3711 15.137c-1.293 0-2.3477-1.0547-2.3477-2.3477s1.0547-2.3477 2.3477-2.3477c1.293 0 2.3477 1.0547 2.3477 2.3477s-1.0547 2.3477-2.3477 2.3477zm-0.75781-7.25v-16.137h1.5156v16.137c-0.24609-0.039062-0.5-0.058593-0.75781-0.058593-0.25781 0-0.51172 0.019531-0.75781 0.058593zm6.3711-18.754h-37.938c-0.73438 0-1.332-0.59766-1.332-1.332s0.59766-1.332 1.332-1.332h37.938c0.73438 0 1.332 0.59766 1.332 1.332s-0.59766 1.332-1.332 1.332zm-51.781 15.555h-1.7617c0.0625-0.36328 0.097656-0.73437 0.097656-1.1172 0-1.9648-0.88281-3.7266-2.2695-4.9141v-28.457c1.1836-1.0156 2-2.4531 2.2109-4.0742l15.449-19.305c1.7266-0.17188 3.2266-1.1211 4.1484-2.4922h10.676c0.26172 0.32422 0.55859 0.61719 0.88281 0.87891v2.1094h-3.1562c-1.5742 0-2.8555 1.2812-2.8555 2.8555v1.2578h-0.75781c-1.5156 0-2.7461 1.2305-2.7461 2.7461v2.3828c0 1.5156 1.2305 2.7461 2.7461 2.7461h20.641c1.5156 0 2.7461-1.2305 2.7461-2.7461v-2.3828c0-1.5156-1.2305-2.7461-2.7461-2.7461h-0.75781v-1.2578c0-1.5742-1.2812-2.8555-2.8555-2.8555h-3.1562v-2.1445c1.2773-1.0391 2.0938-2.625 2.0938-4.3945 0-3.125-2.543-5.668-5.668-5.668-2.1328 0-3.9922 1.1836-4.957 2.9258h-10.133c-1.0195-1.5195-2.75-2.5234-4.7109-2.5234-3.125 0-5.668 2.543-5.668 5.668 0 0.14062 0.007813 0.27734 0.015625 0.41797l-16.078 17.23c-3.3711 0.22266-6.0469 3.0312-6.0469 6.457 0 1.9766 0.89062 3.7461 2.2891 4.9336v28.418c-1.3984 1.1875-2.2891 2.957-2.2891 4.9336 0 0.38281 0.035156 0.75391 0.097656 1.1172h-1.8359c-0.72266 0-1.3086 0.58594-1.3086 1.3086v10.449c0 0.72266 0.58594 1.3086 1.3086 1.3086h16.348c0.72266 0 1.3086-0.58594 1.3086-1.3086v-10.449c0-0.72266-0.58594-1.3086-1.3086-1.3086zm43.312-50.645c0.074218 0 0.13281 0.058594 0.13281 0.13281v2.3828c0 0.074219-0.058594 0.13281-0.13281 0.13281h-20.641c-0.074219 0-0.13281-0.058594-0.13281-0.13281v-2.3828c0-0.074219 0.058594-0.13281 0.13281-0.13281zm-3.6133-4.1133c0.13281 0 0.23828 0.10547 0.23828 0.23828v1.2578h-13.898v-1.2578c0-0.13281 0.10547-0.23828 0.23828-0.23828zm-7.6484-2.6133v-0.94531c0.29688 0.050782 0.60547 0.074219 0.91406 0.074219 0.32812 0 0.64844-0.027344 0.96094-0.082031v0.95312h-1.8789zm0.91797-9.5938c1.6836 0 3.0547 1.3711 3.0547 3.0547s-1.3711 3.0547-3.0547 3.0547-3.0547-1.3711-3.0547-3.0547 1.3711-3.0547 3.0547-3.0547zm-14.16 2.9258h8.4922c0 0.042969-0.003906 0.085938-0.003906 0.12891 0 0.32031 0.027343 0.63281 0.078125 0.9375h-8.5703c0.015625-0.17578 0.027344-0.35156 0.027344-0.53516 0-0.17969-0.007813-0.35547-0.027344-0.53516zm-5.6445-2.5234c1.6836 0 3.0547 1.3711 3.0547 3.0547s-1.3711 3.0547-3.0547 3.0547-3.0547-1.3711-3.0547-3.0547 1.3711-3.0547 3.0547-3.0547zm-4.6719 6.2578c0.57422 0.83594 1.3633 1.5078 2.293 1.9414l-13.027 16.281c-0.65625-1.4297-1.8164-2.582-3.2539-3.2266l13.992-14.992zm-16.629 17.043c2.1289 0 3.8594 1.7305 3.8594 3.8594 0 2.1289-1.7305 3.8594-3.8594 3.8594s-3.8594-1.7305-3.8594-3.8594c0-2.1289 1.7305-3.8594 3.8594-3.8594zm1.5938 10.137v25.734c-0.50781-0.12891-1.043-0.19922-1.5938-0.19922-0.54297 0-1.0664 0.066406-1.5703 0.19531v-25.723c0.50391 0.125 1.0273 0.19531 1.5703 0.19531 0.55078 0 1.082-0.070313 1.5938-0.19922zm-1.5938 28.148c2.1289 0 3.8594 1.7305 3.8594 3.8594s-1.7305 3.8594-3.8594 3.8594-3.8594-1.7305-3.8594-3.8594 1.7305-3.8594 3.8594-3.8594zm6.832 15.426h-13.734v-7.8359h1.6172c1.1758 1.6602 3.1055 2.7422 5.2852 2.7422s4.1133-1.0859 5.2852-2.7422h1.543v7.8359zm28.203-53.977c0.51172 0.51172 0.51172 1.3398 0 1.8477l-1.4297 1.4297c-0.25391 0.25391-0.58984 0.38281-0.92578 0.38281-0.33594 0-0.66797-0.12891-0.92578-0.38281-0.51172-0.51172-0.51172-1.3398 0-1.8477l1.4297-1.4297c0.51172-0.51172 1.3398-0.51172 1.8477 0zm14.031 0 1.4297 1.4297c0.51172 0.51172 0.51172 1.3398 0 1.8477-0.25391 0.25391-0.58984 0.38281-0.92578 0.38281-0.33594 0-0.66797-0.12891-0.92578-0.38281l-1.4297-1.4297c-0.51172-0.51172-0.51172-1.3398 0-1.8477 0.51172-0.51172 1.3398-0.51172 1.8477 0zm-7.9375-0.38281c0.72266 0 1.3086 0.58594 1.3086 1.3086v2.0195c0 0.72266-0.58594 1.3086-1.3086 1.3086-0.72266 0-1.3086-0.58594-1.3086-1.3086v-2.0195c0-0.72266 0.58594-1.3086 1.3086-1.3086z"/>
</svg>