<svg xmlns="http://www.w3.org/2000/svg" version="1.1" viewBox="-5.0 -10.0 110.0 135.0">
 <path d="m42.438 30.832c0.17969 0.13672 0.39062 0.19922 0.60156 0.19922 0.30469 0 0.60156-0.13672 0.80078-0.39844 0.33203-0.44141 0.24219-1.0703-0.19922-1.4023-1.1562-0.86719-1.8203-2.2031-1.8203-3.6562s0.66406-2.7852 1.8203-3.6562c0.44141-0.33203 0.53125-0.96094 0.19922-1.4023-0.33203-0.44141-0.95703-0.53125-1.4023-0.19922-1.6367 1.2305-2.6172 3.1953-2.6172 5.2539 0 2.0664 0.98047 4.0273 2.6172 5.2617z"/>
 <path d="m39.211 33.98c0.1875 0.16016 0.41797 0.23828 0.64844 0.23828 0.28125 0 0.5625-0.11719 0.76172-0.35156 0.35938-0.41797 0.30859-1.0508-0.10938-1.4102-2.0156-1.7227-3.1719-4.2305-3.1719-6.8828 0-2.6406 1.1523-5.1484 3.1641-6.8867 0.41797-0.35938 0.46484-0.99219 0.10547-1.4102-0.35938-0.41797-0.99219-0.46484-1.4102-0.10547-2.4531 2.1172-3.8594 5.1797-3.8594 8.4023 0 3.2422 1.4102 6.3047 3.8711 8.4062z"/>
 <path d="m35.973 37.184c0.19141 0.17188 0.42969 0.25781 0.66797 0.25781 0.27344 0 0.54688-0.11328 0.74609-0.33203 0.36719-0.41016 0.33594-1.043-0.078125-1.4102-2.8711-2.5742-4.5156-6.2617-4.5156-10.117 0-3.8516 1.6445-7.5391 4.5078-10.117 0.41016-0.37109 0.44531-1.0039 0.074219-1.4141-0.37109-0.41016-1.0039-0.44531-1.4141-0.074219-3.2852 2.9609-5.168 7.1875-5.168 11.605 0.003906 4.418 1.8906 8.6445 5.1797 11.602z"/>
 <path d="m92.262 59.984c-2.9023 0-5.2656-2.3633-5.2656-5.2656v-22.883c0-4.0078-3.2578-7.2656-7.2656-7.2656h-0.27344v-1.0469c0-1.9883-1.6172-3.6055-3.6055-3.6055h-1.6562c-0.5625 0-1.1328-0.16406-1.6992-0.48828-2.3281-1.332-5.3438-1.4727-7.7969-0.37109-0.75781 0.33984-2.2305 0.80859-3.625 0.15234-0.20703-0.097657-0.40625-0.20703-0.56641-0.29688-0.95703-0.64062-1.75-1.5156-2.2891-2.5312l-0.45703-0.86328c-0.98828-1.8672-3.2773-2.6641-5.2109-1.8164l-3.8086 1.6719c-1.3828 0.60547-2.2773 1.9766-2.2773 3.4844v13.438c0 1.5039 0.89062 2.8711 2.2656 3.4805l3.7812 1.6758c0.52734 0.23438 1.082 0.34375 1.6289 0.34375 1.457 0 2.8633-0.78516 3.5898-2.1367l0.64844-1.207c0.48438-0.90234 1.2031-1.6562 2.0938-2.1953l0.19141-0.11328c1.168-0.65234 2.6484-0.66016 4.0625-0.03125 2.457 1.0938 5.4727 0.94531 7.7852-0.39062 0.57031-0.32812 1.1445-0.49219 1.707-0.49219h1.6367c1.9883 0 3.6055-1.6172 3.6055-3.6055v-1.0469l0.26953-0.007813c2.9023 0 5.2656 2.3633 5.2656 5.2656v22.883c0 4.0078 3.2617 7.2656 7.2656 7.2656 0.55078 0 1-0.44922 1-1 0-0.55469-0.44922-1-1-1zm-26.723-29.703c-1.9961-0.89062-4.1289-0.84766-5.8555 0.11719l-0.25781 0.15234c-0.39453 0.23828-0.75391 0.51953-1.0977 0.82031v-6.3242c0-0.55078-0.44922-1-1-1s-1 0.44922-1 1v8.9922l-0.36328 0.67578c-0.50391 0.94531-1.6641 1.3438-2.6445 0.91016l-3.7812-1.6758c-0.65234-0.28906-1.0742-0.9375-1.0742-1.6523v-13.438c0-0.71875 0.42188-1.3672 1.0781-1.6562l3.8086-1.6719c0.26563-0.11719 0.54297-0.17188 0.82031-0.17188 0.74219 0 1.457 0.40234 1.8242 1.0898l0.45703 0.86328c0.69531 1.3125 1.7148 2.4375 2.9883 3.2852 0.25391 0.15234 0.51562 0.29297 0.77734 0.41797 1.5703 0.74219 3.4492 0.69531 5.3008-0.13672 1.8789-0.84375 4.207-0.73828 5.9844 0.28125 0.12891 0.074219 0.25781 0.12891 0.38672 0.19141v8.4414c-0.125 0.0625-0.25 0.11719-0.375 0.1875-1.7734 1.0234-4.1016 1.1367-5.9766 0.30078zm11.918-2.6641c0 0.88672-0.71875 1.6055-1.6055 1.6055h-1.6367c-0.10938 0-0.21875 0.015625-0.33203 0.023438v-7.3516c0.10156 0.007813 0.20313 0.019531 0.30859 0.019531h1.6562c0.88672 0 1.6055 0.72266 1.6055 1.6055z"/>
 <path d="m50.465 12.211h0.023437c0.55078-0.011719 0.98828-0.46875 0.97656-1.0234-0.070313-3.0898-0.17969-6.043-0.26953-8.2695-0.023437-0.55078-0.49219-0.97656-1.0391-0.96094-0.55078 0.023438-0.98047 0.48828-0.96094 1.0391 0.089844 2.2188 0.19922 5.1602 0.26563 8.2344 0.015624 0.54688 0.46094 0.98047 1.0039 0.98047z"/>
 <path d="m50.801 61.648c-0.88281-1.1953-1.7148-2.3242-2.2305-3.6289-1.6953-4.2812-0.75781-9.4805 0.070313-14.07 0.10938-0.60547 0.21875-1.2031 0.31641-1.7891 0.14844-0.85547 0.28906-1.7109 0.42969-2.5703 0.089843-0.54297-0.28125-1.0586-0.82812-1.1484-0.54297-0.089844-1.0586 0.28125-1.1484 0.82812-0.13672 0.85156-0.28125 1.7031-0.42578 2.5508-0.097656 0.58203-0.20703 1.1719-0.31641 1.7734-0.875 4.8516-1.8672 10.352 0.039062 15.16 0.61328 1.543 1.5625 2.832 2.4805 4.0781 0.94922 1.2852 1.8438 2.5039 2.3555 3.9453 1.0156 2.8633 0.76953 5.6289-0.67969 7.5859-1.4102 1.9062-3.5781 3.2461-5.6758 4.4531-4.4688 2.5703-8.4258 5.8672-11.762 9.7969l-0.4375 0.51562c-2.4297 2.8633-5.6445 4.8477-9.293 5.7383l-0.92187 0.22266c-4.1055 1.0039-8.3164 1.207-12.504 0.60938-0.58594-0.085938-1.0742-0.43359-1.3398-0.96484-0.26563-0.53125-0.25781-1.1328 0.027343-1.6523 0.38281-0.70312 0.89844-1.3008 1.5352-1.7852l7.4961-5.6641c3.1016-2.3438 5.2969-5.7227 6.1797-9.5117l3.0117-12.953c1.3477-5.0508 2.8125-11.684 2.1523-18.164-1.0859-10.621-2.6016-31.477-3.3281-42.125-0.035156-0.55078-0.52344-0.96094-1.0664-0.92969-0.55078 0.039062-0.96875 0.51562-0.92969 1.0664 0.72656 10.66 2.2461 31.547 3.332 42.195 0.62891 6.1562-0.78906 12.555-2.1055 17.477l-3.0156 12.992c-0.77734 3.332-2.707 6.3047-5.4375 8.3672l-7.4961 5.6641c-0.86719 0.65625-1.5703 1.4727-2.0859 2.4258-0.58984 1.0859-0.60938 2.3984-0.054688 3.5039 0.55469 1.1055 1.6172 1.8711 2.8438 2.0469 1.6562 0.23828 3.3203 0.35547 4.9766 0.35547 2.7812 0 5.5547-0.33594 8.2852-1l0.92188-0.22266c4.0625-0.99219 7.6367-3.1992 10.344-6.3867l0.4375-0.51562c3.1875-3.7539 6.9688-6.9023 11.234-9.3594 2.2812-1.3125 4.6484-2.7812 6.2891-4.9961 1.8477-2.5039 2.1992-5.9453 0.95703-9.4453-0.61328-1.7266-1.6406-3.1211-2.6328-4.4688z"/>
</svg>