<svg xmlns="http://www.w3.org/2000/svg" xmlns:xlink="http://www.w3.org/1999/xlink" version="1.1" x="0px" y="0px" viewBox="0 0 504.005 610" style="enable-background:new 0 0 504.005 488;" xml:space="preserve"><path d="M452.565,247.27l-90.02-83.65c-9.15-8.5-14.39-20.51-14.39-32.96c0-24.86,20.32-45.08,45.31-45.08h77.32  c18.32,0,33.22-19.2,33.22-42.79c0-23.6-14.9-42.79-33.22-42.79h-77.32c-72.37,0-131.24,58.61-131.24,130.66  c0,36.09,15.2,70.91,41.7,95.53l90.03,83.65c9.14,8.49,14.38,20.5,14.38,32.95c0,18.82-11.98,35.74-29.51,42.26  c-7.05-13.37-17.86-21.41-29.8-21.41c-8.96,0-17.43,4.56-24.2,12.92c-5.79-5.2-12.52-8.08-19.63-8.08c-8.96,0-17.43,4.56-24.2,12.92  c-5.79-5.19-12.53-8.07-19.64-8.07c-7.11,0-13.84,2.88-19.63,8.07c-6.77-8.36-15.24-12.92-24.2-12.92c-7.11,0-13.85,2.88-19.64,8.08  c-6.76-8.36-15.23-12.92-24.19-12.92c-9.73,0-18.7,5.34-25.51,14.54h-8.88c-19.15,0-36.34-9.84-45.97-26.32  c-9.62-16.47-9.71-36.19-0.25-52.75l42.74-74.78c30.88-54.03,21.61-122.46-22.54-166.42l-25.75-25.63  c-0.01-0.01-0.01-0.01-0.01-0.01c-12.95-12.89-37.11-9.82-53.86,6.85c-9.5,9.46-14.95,21.5-14.95,33.03  c0,8.25,2.78,15.39,8.06,20.64c0.01,0,0.01,0.01,0.01,0.01l25.75,25.63c16.87,16.79,20.41,42.93,8.62,63.57l-42.74,74.78  c-24.78,43.36-24.54,94.99,0.65,138.12c25.19,43.12,70.14,68.86,120.24,68.86h8.93c6.96,9.4,15.89,14.54,25.46,14.54  c7.03,0,13.73-2.77,19.61-8.06c6.66,8.23,15.14,12.91,24.22,12.91c7.02,0,13.73-2.78,19.61-8.07c6.66,8.23,15.14,12.92,24.22,12.92  c9.08,0,17.56-4.69,24.23-12.92c5.88,5.29,12.59,8.07,19.61,8.07c9.12,0,17.63-4.72,24.31-13.02c8.12,7,15.45,8.17,19.4,8.17  c0.05,0,0.1,0,0.15,0c4.96-0.03,10.11-1.71,14.94-4.86c71.9-0.52,130.27-58.97,130.27-130.65  C494.265,306.7,479.065,271.89,452.565,247.27z M139.305,455.76c-47.22,0-89.59-24.26-113.33-64.9  c-23.73-40.62-23.96-89.27-0.62-130.11l42.74-74.78c13.58-23.77,9.51-53.87-9.92-73.21l-12.08-12.03c0.45,0.02,0.9,0.03,1.36,0.03  c10.03,0,21.02-4.17,30.25-12.13l2.38,2.38c29.23,29.1,35.37,74.4,14.93,110.17l-42.74,74.78c-17.78,31.11-17.66,68.19,0.33,99.18  c17.5,30.16,48.36,48.57,83.08,49.77c0.5,11.29,3.16,21.95,7.65,30.85H139.305z M348.995,470.3c-2.33,0.03-8.14-0.66-14.96-6.85  c2.08-3.63,3.88-7.69,5.33-12.15c0.69-2.1-0.46-4.36-2.56-5.04c-2.1-0.69-4.36,0.46-5.04,2.56c-5.31,16.24-15.49,26.33-26.57,26.33  c-5.29,0-10.46-2.33-15.05-6.75c2.1-3.66,3.92-7.76,5.39-12.25c0.69-2.1-0.46-4.36-2.56-5.04c-2.1-0.69-4.36,0.46-5.04,2.56  c-5.31,16.24-15.49,26.33-26.58,26.33c-11.08,0-21.26-10.09-26.57-26.33c-0.69-2.1-2.95-3.25-5.04-2.56  c-2.1,0.68-3.25,2.94-2.56,5.04c1.46,4.49,3.28,8.59,5.39,12.25c-4.6,4.42-9.76,6.75-15.05,6.75c-11.08,0-21.27-10.09-26.57-26.33  c-0.69-2.1-2.95-3.25-5.05-2.56c-2.1,0.68-3.24,2.94-2.56,5.04c1.47,4.5,3.29,8.6,5.4,12.25c-3.58,3.44-8.67,6.75-15.05,6.75  c-16.6,0-30.1-22.13-30.1-49.33c0-2.21-1.79-4-4-4h-0.29c-33.3,0-63.13-17.14-79.78-45.84c-16.54-28.5-16.65-62.59-0.3-91.2  l42.74-74.78c22.23-38.9,15.55-88.17-16.23-119.81l-2.36-2.35c7.8-8.95,12.22-19.72,12.22-30.09c0-0.45-0.02-0.9-0.03-1.34  l12.07,12.02c41.6,41.41,50.34,105.88,21.25,156.78l-42.74,74.78c-10.9,19.07-10.8,41.79,0.29,60.76  c11.07,18.96,30.84,30.28,52.87,30.28h4c-2.16,4.32-3.95,9.15-5.26,14.43c-0.54,2.14,0.77,4.31,2.91,4.85  c0.32,0.08,0.65,0.12,0.97,0.12c1.79,0,3.43-1.22,3.88-3.04c4.61-18.48,15.82-30.9,27.89-30.9c6.78,0,13.36,3.85,18.72,10.89  c-3.7,4.87-6.8,10.87-9.07,17.8c-0.68,2.1,0.46,4.36,2.56,5.05c0.41,0.13,0.83,0.2,1.25,0.2c1.68,0,3.25-1.07,3.8-2.76  c5.3-16.24,15.49-26.34,26.57-26.34c6.78,0,13.36,3.86,18.72,10.9c-3.7,4.87-6.8,10.87-9.06,17.8c-0.69,2.1,0.46,4.36,2.56,5.05  c0.41,0.13,0.83,0.2,1.24,0.2c1.68,0,3.25-1.08,3.8-2.76c5.31-16.25,15.49-26.34,26.57-26.34c11.09,0,21.27,10.09,26.58,26.34  c0.68,2.1,2.94,3.24,5.04,2.56c2.1-0.69,3.25-2.95,2.56-5.05c-2.26-6.93-5.36-12.93-9.07-17.8c5.36-7.04,11.94-10.9,18.73-10.9  c11.08,0,21.26,10.1,26.57,26.34c0.55,1.69,2.12,2.76,3.8,2.76c0.41,0,0.83-0.07,1.24-0.2c2.1-0.69,3.25-2.95,2.56-5.05  c-2.26-6.93-5.36-12.93-9.06-17.8c5.35-7.04,11.94-10.89,18.72-10.89c12.06,0,23.27,12.42,27.89,30.9c0.45,1.82,2.08,3.04,3.87,3.04  c0.32,0,0.65-0.04,0.98-0.12c2.14-0.54,3.44-2.71,2.91-4.85c-0.72-2.89-1.58-5.64-2.57-8.25c20.36-7.8,34.23-27.58,34.23-49.57  c0-14.66-6.17-28.81-16.94-38.81l-90.02-83.65c-24.88-23.11-39.15-55.8-39.15-89.67C270.225,63.03,325.515,8,393.465,8h58.01  c-7.62,7.04-12.85,18.12-13.76,30.79h-44.25c-50.88,0-92.27,41.21-92.27,91.87c0,25.38,10.68,49.86,29.31,67.17l90.03,83.65  c17.01,15.81,26.77,38.15,26.77,61.31c0,39.38-26.9,73.01-65.41,81.77c-1.71,0.39-2.97,1.84-3.1,3.59  C376.795,454.07,361.775,470.21,348.995,470.3z M373.285,465.03c6.59-7.97,11.62-19.3,13.21-33.36c18.91-4.95,36-15.95,48.37-31.21  c13.18-16.26,20.44-36.74,20.44-57.67c0-25.37-10.69-49.86-29.32-67.17l-90.03-83.65c-17.01-15.8-26.76-38.15-26.76-61.31  c0-46.25,37.8-83.87,84.27-83.87h44.25c0.91,12.67,6.14,23.75,13.76,30.79h-58.01c-29.4,0-53.31,23.81-53.31,53.08  c0,14.67,6.17,28.81,16.94,38.82l90.03,83.65c24.87,23.11,39.14,55.79,39.14,89.66C486.265,406.95,436.445,459.82,373.285,465.03z"/></svg>