<svg xmlns="http://www.w3.org/2000/svg" version="1.1" viewBox="-5.0 -10.0 110.0 135.0">
 <path d="m57.953 45.938c-1.25-2.5-3.1875-4.7812-5.7656-6.8125l-32.047-25.047c-0.39062-0.29688-0.89062-0.40625-1.3594-0.28125s-0.85938 0.45312-1.0469 0.90625l-12.922 30.656c-0.29688 0.70312-0.046875 1.5156 0.59375 1.9219l23.391 15.047c0.46875 0.29688 0.73438 0.84375 0.71875 1.4219-0.39062 10.078 7.0469 27.781 7.3594 28.531 0.25 0.57812 0.8125 0.95312 1.4375 0.95312h23.156c0.4375 0 0.84375-0.1875 1.1406-0.5s0.4375-0.75 0.40625-1.1875l-2.9844-38.078c-0.20312-2.6406-0.90625-5.1875-2.0938-7.5469zm-18.578 44.172c-1.5312-3.8125-7.0469-18.125-6.7344-26.234 0.0625-1.7031-0.73438-3.2656-2.1562-4.1719l-22.281-14.344 11.625-27.578 30.422 23.797c2.2031 1.7344 3.8594 3.6562 4.8906 5.75 1 2 1.6094 4.1562 1.7812 6.3906l2.8594 36.391h-20.422zm0.5625-36.234c0.17188-0.78125 0.6875-1.4844 1.3906-1.875 1.0938-0.625 1.7969-1.5312 2.0469-2.6406 0.34375-1.5312-0.20312-3.3281-1.6094-5.3281-0.71875-1.0312-2.125-2.2188-4.6875-2.0469-1.875 0.14062-3.7656-0.4375-5.2969-1.5781l-11.312-8.4688c-0.32812-0.25-0.75-0.34375-1.1562-0.29688-0.40625 0.0625-0.78125 0.28125-1.0312 0.60938l-3.8125 5.1406c-0.51562 0.6875-0.375 1.6719 0.32812 2.1875l11.156 8.3438c1.6406 1.2188 2.7656 2.875 3.1406 4.6719 0.5625 2.6094 2.1406 3.6406 3.375 4.0312 1.1562 0.375 2.2031 0.5625 3.125 0.5625s1.7656-0.20312 2.4531-0.59375c0.98438-0.5625 1.6406-1.5 1.9219-2.7344zm-3.4688 0.015625c-0.20312 0.10938-1.0156 0.4375-3.0625-0.23438-0.42188-0.14062-1.0156-0.45312-1.2812-1.7031-0.54688-2.5469-2.0938-4.8594-4.3438-6.5156l-9.9062-7.4062 1.9531-2.6406 10.062 7.5312c2.1406 1.5781 4.7656 2.3594 7.375 2.1875 1.1875-0.078125 1.6719 0.375 1.9219 0.73438 0.82812 1.1875 1.25 2.25 1.1094 2.8438-0.015625 0.10938-0.078125 0.34375-0.53125 0.59375-1.4688 0.82812-2.5469 2.2969-2.9062 3.9219-0.10938 0.51562-0.32812 0.64062-0.42188 0.6875zm15.688 17.219c-0.60938-1.8281-0.54688-3.7969 0.17188-5.5469 0.95312-2.375 0.26562-4.0781-0.48438-5.0781-1.4531-1.9688-3-3.0469-4.5469-3.2031-1.1406-0.10938-2.2188 0.26562-3.1406 1.1094-0.59375 0.54688-1.4219 0.8125-2.2188 0.73438-1.25-0.125-2.3438 0.20312-3.1875 0.96875-1.1719 1.0469-1.7656 2.8281-1.7656 5.2812 0 0.54688 0.09375 1.2031 0.375 1.875l2.5 14.781c0.125 0.76562 0.79688 1.2969 1.5469 1.2969 0.09375 0 0.17188 0 0.26562-0.015625 0.84375-0.14062 1.4219-0.95312 1.2812-1.7969l-1.7969-10.562c0.90625 0.89062 1.625 2.0156 2.0469 3.3281l3.4062 10.516c0.125 0.39062 0.40625 0.71875 0.78125 0.90625 0.21875 0.10938 0.46875 0.17188 0.70312 0.17188 0.17188 0 0.32812-0.03125 0.48438-0.078125l6.0781-2c0.8125-0.26562 1.2656-1.1406 1-1.9688l-3.4844-10.734zm-3.0938 11.234-2.9219-9.0312c-0.875-2.6719-2.5938-4.8594-4.8438-6.1719-1.1094-0.64062-1.2344-1.2969-1.2188-1.75 0-2.1562 0.5625-2.8281 0.73438-2.9844 0.0625-0.0625 0.21875-0.1875 0.57812-0.1875h0.1875c1.6875 0.1875 3.375-0.375 4.6406-1.5312 0.39062-0.35938 0.64062-0.32812 0.73438-0.3125 0.23438 0.015625 1.0781 0.23438 2.3594 1.9531 0.26562 0.34375 0.54688 0.9375 0.09375 2.0469-0.98438 2.4219-1.0625 5.1562-0.23438 7.6875l3 9.2344-3.1094 1.0312zm-2.4062-27.422c0.6875 0.9375 1.75 1.4375 2.8438 1.4375 0.73438 0 1.4844-0.23438 2.1562-0.70312 1.2031-0.875 1.9375-2.2188 2.0156-3.7188s-0.51562-2.9062-1.6094-3.9062l-1.2188-1.0938c-0.82812-0.75-1.9375-1.0625-3.0469-0.84375-1.0938 0.21875-2.0156 0.92188-2.5 1.9219l-0.53125 1.1094c-0.5625 1.1719-0.45312 2.5625 0.3125 3.6094l1.5781 2.1562zm0.92188-4.4219 0.53125-1.1094c0.078125-0.15625 0.1875-0.20312 0.28125-0.21875s0.21875 0 0.34375 0.09375l1.2188 1.0938c0.40625 0.35938 0.60938 0.875 0.59375 1.4219-0.03125 0.53125-0.29688 1.0312-0.79688 1.3906-0.17188 0.125-0.4375 0.09375-0.5625-0.09375l-1.5781-2.1719c-0.09375-0.125-0.09375-0.28125-0.03125-0.40625zm46.578-41.391c-0.92188-1.25-2.2812-2.0625-3.8281-2.2812-1.5312-0.21875-3.0781 0.15625-4.3125 1.0938l-13.234 9.7656c-0.32812 0.25-0.5625 0.60938-0.625 1.0312-0.046875 0.34375 0.046875 0.70312 0.21875 1l-2.7031 1.9375-1.3594-0.20312c-0.40625-0.0625-0.82812 0.046875-1.1562 0.29688l-14.797 11.031c-0.4375 0.32812-0.67188 0.84375-0.625 1.3906s0.375 1.0156 0.85938 1.2656l2.2812 1.1406c1.8438 0.9375 3.8281 1.3906 5.7969 1.3906 2.7031 0 5.3906-0.85938 7.6562-2.5625l5.7969-4.3125c0.32812-0.25 0.54688-0.60938 0.60938-1.0312l0.1875-1.3281 2.7188-1.9375c0.3125 0.34375 0.71875 0.5625 1.1719 0.5625 0.32812 0 0.64062-0.09375 0.92188-0.3125l13.234-9.7812c1.25-0.92188 2.0625-2.2812 2.2812-3.8281 0.21875-1.5312-0.15625-3.0781-1.0938-4.3125zm-21.594 17.453c-0.34375 0.25-0.57812 0.625-0.64062 1.0469l-0.20312 1.3438-5.2812 3.9375c-2.9688 2.2188-6.875 2.5625-10.172 0.875h-0.015625l12.25-9.1406 1.3438 0.20312c0.39062 0.0625 0.8125-0.046875 1.1406-0.28125l3.2344-2.3125 1.5312 2.0469zm19.594-13.594c-0.10938 0.71875-0.48438 1.3438-1.0469 1.7656l-11.984 8.8438-3.2188-4.3281 11.984-8.8438c0.57812-0.4375 1.2812-0.60938 2-0.5s1.3438 0.48438 1.7656 1.0625c0.4375 0.57812 0.60938 1.2812 0.5 2z"/>
</svg>