<svg xmlns="http://www.w3.org/2000/svg" xmlns:xlink="http://www.w3.org/1999/xlink" version="1.1" x="0px" y="0px" viewBox="0 0 504.098 630.00125" style="enable-background:new 0 0 504.098 504.001;" xml:space="preserve"><path d="M483.9,318.588c-8.699-21.591-18.559-46.063-21.419-72.211c-4.774-43.66,40.932-239.491,41.394-241.463  c0.504-2.151-0.831-4.303-2.982-4.807c-2.154-0.503-4.304,0.831-4.807,2.982c-1.9,8.11-46.48,199.147-41.557,244.159  c2.98,27.245,13.059,52.26,21.951,74.331c5.999,14.889,11.665,28.951,14.473,41.879c6.902,31.782,7.528,82.459-2.01,100.163  c-8.576,15.917-39.993,32.381-77.725,32.381c-18.237,0-39.098-4.998-59.272-9.832c-20.591-4.933-40.041-9.593-57.537-9.593  c-17.054,0-36.477,4.482-57.041,9.228c-21.723,5.014-44.186,10.197-64.875,10.197c-23.482,0-37.849-4.967-49.392-8.957  c-8.365-2.893-15.59-5.39-23.955-5.39c-10.133,0-19.596,3.728-28.747,7.333c-9.156,3.606-17.805,7.014-27.063,7.014  c-17.218,0-32.603-11.806-35.024-26.876c-2.23-13.882,7.323-32.364,23.448-36.321c7.382-1.812,15.262-1.618,23.601-1.413  c10.805,0.264,21.976,0.54,32.436-3.809c9.867-4.102,18.458-13.462,27.552-23.372c8.288-9.031,16.857-18.369,27.513-25.44  c4.32-2.867,11.15-6.764,19.059-11.275c11.492-6.555,25.653-14.635,40.314-24.137c1.227,0.795,2.542,1.475,3.931,2.028  c2.672,1.063,5.465,1.593,8.257,1.593c1.683-0.001,3.365-0.201,5.019-0.586l36.998,85.843c-0.883,0.199-1.797,0.365-2.787,0.452  c-5.482,0.485-10.136-1.01-15.059-2.593c-5.157-1.658-10.49-3.373-16.687-2.637c-12.218,1.454-22.737,15.562-23.896,17.166  c-1.293,1.789-0.892,4.285,0.896,5.58c0.708,0.514,1.529,0.761,2.342,0.761c1.239,0,2.46-0.573,3.243-1.651  c2.592-3.57,10.942-13.028,18.361-13.912c4.463-0.533,8.554,0.785,13.292,2.31c5.209,1.675,11.112,3.573,18.214,2.945  c8.395-0.743,13.619-4.59,18.228-7.983c2.883-2.123,5.374-3.956,8.295-4.787c3.69-1.048,8.076-1.35,11.71-1.374  c-5.712,11.328-4.434,28.348-4.228,30.66c0.186,2.079,1.931,3.644,3.979,3.644c0.118,0,0.238-0.005,0.357-0.016  c2.2-0.195,3.825-2.137,3.632-4.336c-0.578-6.574-0.53-24.865,6.541-30.48c3.33-2.644,7.539-4.302,11.932-5.653l11.173,26.306  c0.647,1.523,2.127,2.438,3.684,2.438c0.521,0,1.052-0.103,1.562-0.319c2.033-0.863,2.981-3.212,2.118-5.245l-10.775-25.37  c5.688-1.573,11.413-3.363,16.06-6.794c5.78-4.268,9.892-10.355,12.461-15.072c3.233,7.356,3.818,16.833,4.348,25.526  c0.501,8.22,0.975,15.983,3.561,21.675c6.811,14.982,29.51,24.31,30.473,24.699c0.492,0.199,0.999,0.293,1.499,0.293  c1.581,0,3.077-0.943,3.708-2.498c0.83-2.047-0.157-4.379-2.203-5.21c-0.207-0.084-20.707-8.526-26.193-20.595  c-0.428-0.942-0.78-2.017-1.079-3.189c1.33-3.978,6.743-19.045,14.611-26.035c3.452-3.067,7.917-5.535,12.645-8.147  c7.599-4.2,16.149-8.926,21.592-17.213c3.197-0.494,10.145-1.568,17.108-2.649c4.736-0.736,9.471-1.475,13.022-2.034  c1.782-0.28,3.266-0.517,4.305-0.685c1.706-0.276,5.256-0.852,4.974-4.532c-0.16-2.085-1.904-3.695-3.994-3.695  c-0.33,0-0.65,0.04-0.957,0.115c-1.837,0.326-17.036,2.691-30.192,4.727c5.633-14.988,7.904-36.428,8.014-37.485  c0.227-2.197-1.371-4.162-3.568-4.39c-2.188-0.228-4.163,1.37-4.39,3.567c-0.029,0.287-3.054,28.854-10.23,41.405  c-4.233,7.4-11.674,11.514-19.552,15.867c-4.902,2.709-9.971,5.511-14.088,9.169c-4.553,4.046-8.297,10.009-11.123,15.607  c-0.876-14.314-2.049-30.343-14.05-39.344c-3.773-2.83-7.699-4.589-11.666-5.678c-2.585-3.225-11.145-14.449-14.613-25.669  c8.489-3.09,29.085-12.15,36.855-29.548c6.163-13.799,0.798-30.398-3.978-44.088l21.65-18.855c1.666-1.451,1.84-3.978,0.39-5.644  c-1.452-1.666-3.978-1.84-5.644-0.39l-19.203,16.724c-1.577-4.798-2.761-9.135-2.761-12.352c0-13.083,8.625-25.495,8.814-25.764  c1.281-1.799,0.861-4.296-0.938-5.578c-1.799-1.282-4.298-0.862-5.579,0.938c-0.42,0.59-10.297,14.641-10.297,30.403  c0,5.971,2.509,13.137,5.414,21.434c4.666,13.325,9.954,28.429,4.827,39.909c-6.163,13.8-23.106,21.747-31.136,24.842  c-1.479-14.06,2.043-31.681,2.083-31.877c0.439-2.165-0.958-4.276-3.123-4.717c-2.163-0.439-4.275,0.957-4.717,3.12  c-0.194,0.955-4.726,23.569-1.386,39.647c2.004,9.646,7.75,19.408,12.221,25.904c-3.842-0.121-7.625,0.078-11.245,0.276  c-7.388,0.405-14.366,0.787-20.269-1.554c-14.365-5.695-26.07-27.951-26.187-28.176c-1.017-1.959-3.43-2.726-5.391-1.707  c-1.961,1.017-2.727,3.431-1.709,5.393c0.53,1.022,13.186,25.127,30.338,31.928c7.537,2.987,15.73,2.537,23.656,2.104  c6.542-0.36,12.854-0.701,18.794,0.722c0.001,0,0.002,0.001,0.004,0.001c3.469,0.831,6.811,2.261,9.995,4.65  c0.48,0.36,0.924,0.752,1.36,1.151c-1.696,3.79-5.704,11.479-12.01,16.136c-4.005,2.957-9.576,4.472-15.473,6.076  c-6.598,1.794-13.404,3.649-19.183,7.746c-3.692-0.277-12.998-0.682-20.524,1.458c-4.313,1.227-7.637,3.674-10.851,6.04  c-1.346,0.991-2.674,1.955-4.058,2.836l-37-85.848c3.763-2.492,6.685-6.052,8.388-10.335c1.797-4.521,2.045-9.388,0.804-14.003  c19.889-16.472,33.829-32.968,41.418-49.06c24.914-52.827,3.483-257.552,2.559-266.242c-0.233-2.196-2.204-3.78-4.401-3.554  c-2.197,0.234-3.788,2.204-3.554,4.401c0.224,2.105,22.127,211.165-1.839,261.983c-6.835,14.492-19.369,29.492-37.275,44.638  l-4.566-10.595c0.973-1.167,1.822-2.292,2.546-3.336c3.385-4.882,4.369-10.983,2.699-16.74l-14.565-50.206  c-1.352-4.66-4.939-8.265-9.595-9.643c-2.898-0.857-5.917-0.759-8.662,0.207l-10.438-24.219c6.396-7.929,8.709-14.911,8.872-15.422  c0.294-0.92,0.246-1.915-0.136-2.802l-75.8-175.872c-0.874-2.029-3.229-2.962-5.256-2.09c-2.029,0.875-2.965,3.228-2.09,5.256  l18.402,42.696c-2.552,2.456-7.718,7.083-14.867,11.785c-1.622,1.066-2.244,3.143-1.476,4.925l7.434,17.248  c1.499,3.478,1.554,7.331,0.154,10.849c-1.399,3.519-4.085,6.282-7.562,7.78c-3.478,1.499-7.331,1.553-10.849,0.155  c-3.519-1.399-6.282-4.085-7.78-7.562l-7.434-17.248c-0.768-1.783-2.706-2.756-4.594-2.31c-8.329,1.969-15.241,2.543-18.777,2.712  L36.57,2.418c-0.874-2.029-3.228-2.962-5.256-2.09c-2.029,0.875-2.965,3.228-2.09,5.256L118.6,212.959  c0.382,0.887,1.072,1.606,1.943,2.023c0.483,0.232,7.147,3.344,17.303,4.139l10.439,24.22c-2.588,1.332-4.732,3.459-6.099,6.155  c-2.195,4.33-2.038,9.413,0.421,13.596l26.496,45.064c3.039,5.167,8.149,8.642,14.022,9.534c1.253,0.19,2.66,0.34,4.171,0.435  l6.613,15.344c0.647,1.502,1.458,2.9,2.388,4.199c-13.911,8.94-27.354,16.611-38.338,22.877c-8.366,4.771-14.975,8.541-19.52,11.558  c-10.278,6.822-18.817,15.673-26.39,23.879c-8.36,2.493-17.67,1.439-27.507,0.313c-10.033-1.148-20.408-2.337-30.022,0.528  c-16.723,4.982-24.545,22.621-26.822,28.819C8.25,431.752-2.275,453.651,0.415,470.394c3.028,18.845,21.882,33.606,42.923,33.606  c10.776,0,20.546-3.849,29.995-7.57c8.845-3.485,17.2-6.776,25.814-6.776c7.021,0,13.34,2.185,21.341,4.95  c12.109,4.187,27.18,9.396,52.006,9.396c21.6,0,44.514-5.288,66.673-10.402c20.107-4.64,39.099-9.022,55.242-9.022  c16.551,0,35.554,4.553,55.673,9.373c20.625,4.941,41.954,10.052,61.136,10.052c37.088,0,73.53-15.729,84.768-36.586  c10.496-19.482,10.127-71.85,2.785-105.655C495.819,348.169,490.029,333.799,483.9,318.588z M227.743,329.926  c-1.415,3.558-4.131,6.353-7.647,7.867s-7.413,1.573-10.972,0.156c-3.558-1.414-6.352-4.13-7.868-7.646l-5.351-12.414  c4.285-0.495,9.021-1.603,13.996-3.747c4.973-2.143,9.037-4.822,12.338-7.595l5.347,12.407  C229.102,322.471,229.158,326.368,227.743,329.926z M156.207,241.512l-9.628-22.34c6.13-0.411,13.009-1.816,20.261-4.942  c7.256-3.127,12.994-7.166,17.503-11.341l9.631,22.346c-5.672,4.593-11.616,8.246-17.706,10.87  C170.178,238.73,163.44,240.542,156.207,241.512z M71.914,84.423c3.507-0.278,8.337-0.847,13.967-2.009l6.125,14.211  c2.344,5.44,6.667,9.641,12.171,11.83c2.652,1.055,5.427,1.582,8.198,1.582c2.979,0,5.955-0.608,8.773-1.823  c5.44-2.344,9.641-6.667,11.83-12.171c2.188-5.504,2.103-11.532-0.242-16.971l-6.125-14.211c4.711-3.295,8.441-6.417,11.051-8.775  l20.604,47.805c-6.76,8.568-16.526,15.593-29.779,21.43c-2.021,0.89-2.939,3.251-2.048,5.273c0.66,1.498,2.125,2.389,3.663,2.389  c0.539,0,1.086-0.109,1.61-0.34c12.817-5.645,22.72-12.409,30.087-20.556l11.95,27.726c-6.759,8.568-16.526,15.593-29.78,21.431  c-2.022,0.891-2.939,3.251-2.048,5.273c0.66,1.498,2.125,2.389,3.663,2.389c0.539,0,1.086-0.109,1.61-0.34  c12.818-5.646,22.72-12.409,30.087-20.556l13.771,31.951c-1.876,4.455-9.229,19.102-27.377,26.924  c-18.158,7.827-33.861,3.104-38.372,1.414L71.914,84.423z M149.322,253.114c0.956-1.885,2.704-3.088,4.795-3.3  c9.151-0.925,17.669-3.066,25.317-6.362c7.648-3.296,15.054-8.018,22.011-14.035c1.59-1.375,3.664-1.819,5.692-1.22  c2.06,0.609,3.583,2.14,4.181,4.2l5.536,19.083c-1.705,3.38-8.034,13.608-24.951,20.899c-16.919,7.291-28.7,4.868-32.328,3.787  l-10.071-17.129C148.417,257.189,148.351,255.03,149.322,253.114z M175.999,304.102l-11.111-18.898c1.374,0.124,2.881,0.2,4.514,0.2  c6.667,0,15.424-1.264,25.667-5.679c12.758-5.499,20.369-12.672,24.705-18.181l6.109,21.057c0.996,3.433,0.417,7.061-1.59,9.954  c-3.008,4.34-8.497,10.334-17.558,14.238s-17.187,3.778-22.409,2.986C180.846,309.253,177.811,307.183,175.999,304.102z   M56.805,404.49c8.046-2.395,17.17-1.352,26.828-0.247c6.501,0.745,13.137,1.499,19.666,1.19  c-6.375,6.705-12.301,12.155-18.571,14.762c-8.891,3.695-18.741,3.453-29.167,3.197c-6.054-0.148-12.252-0.285-18.36,0.386  C40.36,417.238,46.606,407.529,56.805,404.49z"/></svg>