<svg xmlns="http://www.w3.org/2000/svg" viewBox="0 0 100 125" fill="none" x="0px" y="0px"><path d="M52.4505 68.2088C50.1039 68.2088 48.0306 69.3888 46.784 71.1834L42.9841 50.6931C44.1134 50.1131 44.896 48.9492 44.896 47.5946C44.896 46.2239 44.0947 45.0453 42.9427 44.4733L43.2587 42.7706C44.1481 37.9734 44.5987 33.0682 44.5987 28.1869V18.9711C44.5987 18.4364 44.1641 18.0018 43.6294 18.0018C43.0934 18.0018 42.6588 18.4351 42.6588 18.9711V28.1869C42.6588 32.8482 42.2308 37.5294 41.4001 42.1146C40.5681 37.5294 40.1415 32.8482 40.1415 28.1869V18.9711C40.1415 18.4364 39.7068 18.0018 39.1708 18.0018C38.6349 18.0018 38.2002 18.4351 38.2002 18.9711V28.1869C38.2002 33.0682 38.6522 37.9747 39.5402 42.7706L39.8562 44.4733C38.7042 45.0453 37.9029 46.2239 37.9029 47.5946C37.9029 48.9505 38.6855 50.1145 39.8148 50.6931L36.0163 71.1834C34.7696 69.3874 32.6963 68.2088 30.3497 68.2088C26.5472 68.2088 23.4539 71.3021 23.4539 75.1047C23.4539 78.9073 26.5472 82.0005 30.3497 82.0005C34.1096 82.0005 37.1709 78.9726 37.2389 75.23L41.3988 52.7931L45.5587 75.23C45.6253 78.9739 48.6879 82.0005 52.4478 82.0005C56.2504 82.0005 59.3423 78.9073 59.3423 75.1047C59.3423 71.3021 56.2531 68.2088 52.4505 68.2088ZM41.4028 46.0372C42.2614 46.0372 42.9587 46.7372 42.9587 47.5946C42.9587 48.4545 42.2614 49.1519 41.4028 49.1519C40.5441 49.1519 39.8468 48.4545 39.8468 47.5946C39.8468 46.7386 40.5441 46.0372 41.4028 46.0372ZM30.3537 80.0605C27.6205 80.0605 25.3979 77.8366 25.3979 75.1047C25.3979 72.3714 27.6205 70.1488 30.3537 70.1488C33.0857 70.1488 35.3083 72.3714 35.3083 75.1047C35.3083 77.8366 33.0857 80.0605 30.3537 80.0605ZM52.4505 80.0605C49.7172 80.0605 47.4946 77.8366 47.4946 75.1047C47.4946 72.3714 49.7172 70.1488 52.4505 70.1488C55.1824 70.1488 57.4064 72.3714 57.4064 75.1047C57.4064 77.8366 55.1838 80.0605 52.4505 80.0605Z" fill="black"/><path d="M74.8566 44.0985H74.6953V18.9697C74.6953 18.6124 74.4979 18.2844 74.1819 18.1151C73.8659 17.9457 73.4833 17.9657 73.1846 18.1644C72.8406 18.3964 64.7368 23.9069 64.4262 30.8335C64.2875 33.9481 65.7288 36.8094 68.7154 39.352V44.0985C68.1808 44.0985 67.7448 44.5319 67.7448 45.0692V77.9579C67.7448 80.1872 69.5567 81.9991 71.786 81.9991C74.0139 81.9991 75.8259 80.1872 75.8259 77.9579V45.0692C75.8272 44.5319 75.3926 44.0985 74.8566 44.0985ZM73.8873 56.6756H69.6847V54.4117H73.8873V56.6756ZM69.686 52.4717V46.0372H73.8886V52.4717H69.686ZM70.2954 38.144C67.5728 35.9387 66.2501 33.5108 66.3648 30.9268C66.5541 26.6496 70.5154 22.787 72.7566 20.9337V44.0985H70.6553V38.8973C70.6553 38.6053 70.5234 38.3267 70.2954 38.144ZM71.7873 80.0605C70.6287 80.0605 69.686 79.1205 69.686 77.9592V58.6143H73.8886V77.9592C73.8873 79.1205 72.946 80.0605 71.7873 80.0605Z" fill="black"/>></svg>