<svg xmlns="http://www.w3.org/2000/svg" version="1.1" viewBox="-5.0 -10.0 110.0 135.0">
 <path d="m26.23 21.18c0 0.027343 0.003906 0.050781 0.007812 0.074218 0.11719 1.5664 0.12109 3.1797-0.26953 4.6875-0.33594 1.3008-1.1172 2.457-1.8438 3.5742-1.2812 1.9648-2.6758 4.0156-4.4336 5.5859-1.0312 0.92188-2.1289 1.8047-3.3086 2.5312-0.22656 0.14453-0.86328 0.38281-1.2773 0.625-0.38672 0.22266-0.64453 0.49609-0.75 0.69531-0.12109 0.22656-0.19531 0.54688-0.19141 0.91406 0.003907 0.5 0.14844 1.125 0.22656 1.4531 0.57031 2.3086 2.918 4.125 5.2773 4.3477 0.12891 0.011719 0.31641 0.003906 0.52734-0.09375 0.15625-0.070313 0.66797-0.49219 0.76172-0.57031 0.62891-0.39453 1.3164-0.69531 1.9258-1.125 2.0273-1.4258 4.3203-3.3203 6.043-5.3984 1.0703 11.137 5.1836 22.125 4.3828 33.328-0.34375 4.8359-1.3555 10.621-3.207 15.125-0.67969 1.6445-1.5703 3.1641-2.5234 4.6641-0.20703 0.32031-0.77344 0.98828-1.0938 1.5312-0.25 0.42188-0.36328 0.81641-0.35938 1.0859 0.003906 0.32031 0.17969 0.76953 0.66797 1.1484 0.78516 0.60547 2.7656 1.3359 3.1914 1.4844 3.4766 1.2148 8.3398 1.6172 11.562-0.58594 2.4727-1.6875 3.0859-4.9219 3.4414-7.668 0.73828-5.6797 0.69531-11.516 0.73828-17.238 0.011719-1.9102 0.015626-3.8398-0.19922-5.7383-0.027344-0.23828-0.12891-0.66016-0.21875-1.0938l-0.019532-0.10156c6.4727-0.058594 11.305 5.4688 14.586 10.359 5.8047 8.6562 9.7109 16.492 21.168 17.93 0.53516 0.066406 1.0234-0.3125 1.0898-0.84766 0.066407-0.53516-0.3125-1.0234-0.84766-1.0898-10.797-1.3516-14.316-8.9258-19.789-17.078-3.6719-5.4766-9.2461-11.465-16.543-11.223-0.11719 0.003906-0.83594 0.046875-1.0195 0.125-0.28516 0.12109-0.43359 0.31641-0.51172 0.47266-0.125 0.23828-0.19531 0.63281-0.14844 1.1055 0.058593 0.5625 0.27734 1.3164 0.31641 1.6602 0.20312 1.8242 0.19531 3.6719 0.18359 5.5039-0.042969 5.6445 0.003906 11.398-0.72266 17.004-0.15234 1.1797-0.33203 2.4766-0.74609 3.6562-0.36719 1.0469-0.91406 2.0078-1.8594 2.6484-2.7344 1.8672-6.8672 1.3867-9.8164 0.35547-0.25-0.085937-1.1133-0.39453-1.8633-0.75-0.16406-0.078125-0.35156-0.18359-0.50391-0.27344 0.035156-0.0625 0.074219-0.12109 0.10938-0.17188 0.31641-0.44922 0.69141-0.91016 0.85156-1.1641 1.0195-1.5938 1.9648-3.2148 2.6836-4.9688 1.9258-4.6836 2.9922-10.699 3.3516-15.73 0.87109-12.207-4.0234-24.172-4.5781-36.332-0.023438-0.4375-0.33203-0.80859-0.75781-0.91016-0.42578-0.097656-0.86719 0.10156-1.0781 0.48438-1.4922 2.7227-4.5312 5.3008-7.0859 7.0938-0.59375 0.41797-1.2656 0.70312-1.8789 1.0938-0.050781 0.03125-0.22656 0.17969-0.37109 0.29688-1.4609-0.26953-2.8672-1.3828-3.2188-2.8164-0.042968-0.18359-0.11328-0.67969-0.14844-0.93359 0.11328-0.058594 0.26172-0.14062 0.375-0.19141 0.36719-0.17188 0.72656-0.33203 0.89844-0.43359 1.2734-0.79297 2.4609-1.7422 3.5781-2.7383 1.8867-1.6836 3.3984-3.8711 4.7695-5.9766 0.83984-1.2891 1.707-2.6484 2.0977-4.1523 0.26172-1.0117 0.375-2.0664 0.39453-3.125 3.0469 2.0117 6.7969 1.8086 10.82 0.035156 0.039062 0.89844-0.066407 1.8203-0.21094 2.7422-0.23047 1.5078-0.5625 3.0195-0.64062 4.457-0.23438 4.3672 0.41406 11.023 2.6133 16.348 1.5312 3.7109 3.8281 6.7656 7.0156 8.1055 1.5 0.62891 3.1094 0.98047 4.7109 1.2266 1.1992 0.18359 2.4023 0.23438 3.6094 0.089844 3.8633-0.45312 6.2031-2.5312 7.9961-5.2031 1.6445-2.457 2.8008-5.4375 4.3867-7.9766 2.75-4.4141 8.0977-7.5977 13.391-6.7891 0.53125 0.082031 1.0312-0.28516 1.1133-0.81641 0.082031-0.53516-0.28516-1.0312-0.81641-1.1133-6.0508-0.92578-12.199 2.6367-15.348 7.6836-1.5703 2.5195-2.7148 5.4844-4.3477 7.9219-1.4844 2.2188-3.4023 3.9766-6.6016 4.3555-1.0352 0.12109-2.0625 0.074218-3.0859-0.082032-1.4453-0.22266-2.8984-0.52734-4.25-1.0977-2.7461-1.1523-4.6484-3.8516-5.9688-7.0508-2.0859-5.043-2.6875-11.359-2.4648-15.496 0.074219-1.375 0.39453-2.8203 0.61719-4.2656 0.24609-1.5938 0.37109-3.1836 0.03125-4.6953-0.003907-0.011719-0.003907-0.027344-0.007813-0.039063-0.33594-1.4531-0.96875-2.5039-1.7812-3.2461-1.2109-1.1133-2.8516-1.5547-4.6328-1.5273-2.6797 0.042968-5.6953 1.1602-7.7578 2.2539-0.35156 0.1875-0.55469 0.57031-0.51562 0.96484 0.039063 0.35938 0.074219 0.72266 0.10156 1.0898zm38.293 69.73c-3.2188-2.7031-5.8516-6.3594-7.8438-11.035-0.21094-0.49609 0.019531-1.0703 0.51562-1.2812 0.49609-0.21094 1.0703 0.019531 1.2812 0.51562 1.8125 4.2539 4.1758 7.6094 7.0781 10.113l0.92969-1.5273 3.4766 5.5547-6.5273-0.55469zm1.7617-17.129c0.3125 0.37109 0.62891 0.73438 0.94531 1.1016 0.95312 1.1016 1.832 2.2461 2.5781 3.4961 1.3906 2.3242 2.9648 4.7969 4.9609 6.6172 2.125 1.9375 4.7148 3.1562 8.0391 2.8242 0.53516-0.050781 0.92578-0.53125 0.875-1.0664-0.054688-0.53516-0.53516-0.92969-1.0703-0.875-2.7031 0.26953-4.8008-0.75-6.5273-2.3281-1.8594-1.6914-3.3047-4.0078-4.5977-6.1758-0.66406-1.1094-1.4297-2.1484-2.25-3.1445 0.79297 0.10547 1.6016 0.14453 2.3867 0.14844 3.5078 0.027344 7.0625-0.94922 10.445-1.7578 0.52344-0.125 0.84766-0.65234 0.72266-1.1758-0.12891-0.52344-0.65234-0.84766-1.1797-0.72266-3.2266 0.77344-6.6211 1.7305-9.9727 1.7031-1.1328-0.007812-2.3242-0.074219-3.418-0.39453-0.19922-0.058594-0.94141-0.41016-1.3281-0.50391-0.39453-0.09375-0.69922-0.015625-0.85938 0.0625-0.30859 0.15234-0.45703 0.37109-0.53516 0.57422-0.074219 0.1875-0.09375 0.39063-0.050781 0.60156 0.035156 0.16406 0.12109 0.35938 0.29297 0.55078 0.12109 0.13672 0.49609 0.43359 0.54297 0.46484zm15.664-8.3047c-5.9102 1.5625-12.305 1.0312-18.016-1.0508-1.5-0.54688-3.1367-1.3672-4.4922-2.3828 6.0781-4.6914 14.871-3.375 21.535-0.74219 0.50391 0.19531 1.0703-0.050781 1.2695-0.55078 0.19531-0.5-0.050782-1.0703-0.55078-1.2656-7.6289-3.0117-17.797-4.207-24.438 1.8438-0.20312 0.1875-0.31641 0.44922-0.31641 0.72266 0 0.27344 0.11328 0.53516 0.31641 0.72266 1.6562 1.5117 3.9453 2.7344 6.0078 3.4883 6.0781 2.2148 12.891 2.7656 19.184 1.1016 0.51953-0.13672 0.83203-0.67188 0.69531-1.1953-0.14062-0.51953-0.67578-0.83203-1.1953-0.69141zm-12.887-11.441c0.42188-0.042968 0.84375-0.097656 1.2656-0.14062 1.2344-0.125 2.4961-0.25391 3.7383-0.19922 3.7461 0.17578 6.9805 1.6836 10.605 2.3945 0.52734 0.10156 1.0391-0.24219 1.1445-0.76953 0.10547-0.53125-0.23828-1.043-0.76953-1.1484-3.7188-0.73047-7.0469-2.25-10.891-2.4258-1.3359-0.0625-2.6953 0.070312-4.0234 0.20312l-0.10937 0.011719c3.0234-5.0703 8.3672-9.1172 14.414-9.0859 0.53906 0 0.97656-0.43359 0.98047-0.97266 0.003906-0.53906-0.43359-0.98047-0.97266-0.98047-7.4141-0.039063-13.941 5.3555-17.039 11.793-0.17969 0.375-0.10938 0.65625-0.03125 0.84766 0.10156 0.24219 0.27734 0.44141 0.5625 0.55078 0.12891 0.054688 0.33203 0.097657 0.58984 0.058594 0.13281-0.019531 0.48438-0.12109 0.53516-0.13672zm-2.8203-21.332-1.0898-1.7891 6.5273-0.55469-3.4766 5.5547-0.92969-1.5234c-2.8984 2.5-5.2656 5.8594-7.0781 10.109-0.21094 0.49609-0.78516 0.72656-1.2812 0.51562-0.49609-0.21094-0.72656-0.78516-0.51562-1.2812 1.9961-4.6758 4.625-8.332 7.8438-11.031zm-27.543-11.34c-0.23438-0.64062-0.57031-1.1445-0.98438-1.5273-0.85156-0.78125-2.0273-1.0312-3.2812-1.0117-2.1367 0.03125-4.5078 0.85938-6.2969 1.7305 0.003906 0.054687 0.011719 0.10547 0.015625 0.15625 2.793 2.7578 6.5195 2.5391 10.547 0.65234zm-8.4023-12.117c-0.42188-1.9102-1.1055-3.8008-2.0625-5.6797-0.24219-0.48047-0.050781-1.0664 0.42969-1.3125 0.48047-0.24219 1.0664-0.050781 1.3125 0.42969 1.0859 2.1289 1.8477 4.2812 2.2969 6.4531l2.0898-0.11328-2.6055 6.0117-3.2422-5.6914z" fill-rule="evenodd"/>
</svg>
