<svg xmlns="http://www.w3.org/2000/svg" version="1.1" viewBox="-5.0 -10.0 110.0 135.0">
 <path d="m69.559 15.781h-3.9219c-2.6914 0-4.8789-2.1992-4.8789-4.8906v-1.9609c0-1.6094-1.3203-2.9297-2.9414-2.9297h-15.641c-1.6211 0-2.9414 1.3203-2.9414 2.9297v1.9609c0 2.6914-2.1914 4.8906-4.8789 4.8906h-3.9219c-6.5117 0-12.648 2.5391-17.281 7.1602-4.6211 4.6289-7.1602 10.762-7.1602 17.281 0 2.4688 1.3398 4.7617 3.4688 5.9492-1.5898 1.1719-2.4883 3.2812-2.4883 5.7891v21.512c0 3.7695 3.0703 6.8398 6.8398 6.8398h10.172l0.5 10.898c0.070313 1.5586 1.3594 2.7891 2.9297 2.7891h45.16c1.5703 0 2.8594-1.2305 2.9297-2.7891l0.5-10.898h10.172c3.7695 0 6.8398-3.0703 6.8398-6.8398v-21.512c0-2.5117-0.89844-4.6211-2.5195-5.7617 2.1602-1.2188 3.5-3.5117 3.5-5.9805 0-6.5195-2.5391-12.648-7.1602-17.281-4.6289-4.6211-10.77-7.1602-17.281-7.1602zm4 75.34c-0.03125 0.51953-0.46094 0.92188-0.98047 0.92188l-45.156-0.003907c-0.51953 0-0.94922-0.39844-0.98047-0.92187l-1.7617-37.91c1.7109 1.0898 3.6992 1.6797 5.7617 1.6797h4.1016c-0.10938 0.30859-0.17969 0.62891-0.17969 0.98047v27.371c0 1.6211 1.3086 2.9414 2.9297 2.9414h25.422c1.6211 0 2.9297-1.3203 2.9297-2.9414v-27.371c0-0.35156-0.070312-0.67188-0.17969-0.98047h4.1016c2.0586 0 4.0508-0.58984 5.75-1.6797l-1.75 37.91zm-21.859-49.262 6.8203 11.07h-1.9883l-4.8711-7.8984c-0.35938-0.57812-0.98047-0.92969-1.6602-0.92969s-1.3008 0.35156-1.6602 0.92969l-4.8711 7.8984h-1.9883l6.8281-11.078c0.46094-0.78125 0.71094-1.6602 0.71094-2.5508v-1.6602c0-5.0508 4.1094-9.1484 9.1484-9.1484h1.6094v1.9492h-1.6094c-3.9609 0-7.1914 3.2305-7.1914 7.1992v1.6602c0 0.89062 0.25 1.7695 0.71875 2.5586zm-0.71875 25.738h12.711v15.641c0 0.53906-0.44141 0.98047-0.98047 0.98047h-11.73zm-5.2109-14.672 4.2305-6.8789 4.2305 6.8789zm5.2109 12.711v-10.75h11.73c0.53906 0 0.98047 0.44141 0.98047 0.98047v9.7695zm-1.9609-10.75v10.75h-12.711v-9.7695c0-0.53906 0.44141-0.98047 0.98047-0.98047zm0 12.711v16.621h-11.73c-0.53906 0-0.98047-0.44141-0.98047-0.98047v-15.641zm40.531-23.109c-0.55859 0.30859-0.92969 0.87891-0.96875 1.5195-0.050781 0.67969 0.23828 1.3203 0.78906 1.7383 1.0781 0.78906 1.6992 2.3281 1.6992 4.2109v21.512c0 2.6914-2.1992 4.8906-4.8906 4.8906h-10.07l1.2383-26.84c1.9102-2 2.9609-4.6016 2.9609-7.3906v-3.9102c0-0.53906-0.44141-0.98047-0.98047-0.98047s-0.96875 0.44141-0.96875 0.98047v3.9102c0 2.3906-0.94141 4.6211-2.6484 6.2812-0.03125 0.03125-0.050782 0.058594-0.078126 0.089844-1.6406 1.5703-3.8008 2.4297-6.0703 2.4297h-8.75l-7.4414-12.09c-0.28906-0.46875-0.44141-1-0.44141-1.5391v-1.6602c0-2.8906 2.3516-5.2383 5.2383-5.2383h1.6094v0.98047c0 1.6211 1.3086 2.9297 2.9297 2.9297h1.9609c1.6094 0 2.9297-1.3086 2.9297-2.9297v-7.8203c0-1.6211-1.3203-2.9414-2.9297-2.9414h-1.9609c-1.6211 0-2.9297 1.3203-2.9297 2.9414v0.96875h-1.6094c-6.1211 0-11.102 4.9883-11.102 11.109v1.6602c0 0.53906-0.14844 1.0703-0.42969 1.5312l-7.4492 12.102h-8.75c-2.2695 0-4.4297-0.85938-6.0703-2.4297-0.03125-0.03125-0.050782-0.058594-0.078126-0.089844-1.7109-1.6602-2.6484-3.8906-2.6484-6.2812v-3.9102c0-0.53906-0.42969-0.98047-0.96875-0.98047s-0.98047 0.44141-0.98047 0.98047v3.9102c0 2.7891 1.0508 5.3906 2.9609 7.3906l1.2383 26.84-10.07-0.003906c-2.6914 0-4.8906-2.1992-4.8906-4.8906v-21.512c0-1.8789 0.62109-3.4219 1.7109-4.2188 0.53906-0.41016 0.82812-1.0508 0.78125-1.7305-0.039063-0.64062-0.41016-1.2109-0.96094-1.5195-1.5508-0.87109-2.5-2.5-2.5-4.2695 0-5.9883 2.3398-11.641 6.5781-15.898 4.2617-4.25 9.9102-6.5898 15.898-6.5898h3.9219c3.7695 0 6.8398-3.0703 6.8398-6.8398v-1.9609c0-0.53906 0.44141-0.96875 0.98047-0.96875h15.641c0.53906 0 0.98047 0.42969 0.98047 0.96875v1.9609c0 3.7695 3.0703 6.8398 6.8398 6.8398h3.9219c5.9883 0 11.641 2.3398 15.898 6.5898 4.2383 4.2617 6.5781 9.9102 6.5781 15.898 0 1.7695-0.94922 3.3984-2.4883 4.2695zm-27.82-11.109v-7.8203c0-0.53906 0.44141-0.98047 0.98047-0.98047h1.9609c0.53906 0 0.96875 0.44141 0.96875 0.98047v7.8203c0 0.53906-0.42969 0.98047-0.96875 0.98047h-1.9609c-0.53906 0-0.98047-0.44141-0.98047-0.98047z"/>
</svg>
