<svg xmlns="http://www.w3.org/2000/svg" xmlns:xlink="http://www.w3.org/1999/xlink" version="1.1" x="0px" y="0px" viewBox="0 0 504.002 590.00125" style="enable-background:new 0 0 504.002 472.001;" xml:space="preserve"><path d="M196.356,471.997c-2.208-0.078-3.935-1.93-3.857-4.138c0.39-11.091,2.648-21.272,6.714-30.259  c6.49-14.344,15.627-22.139,28.272-32.927c12.001-10.24,26.937-22.984,40.143-43.712c0.745-1.169,2.076-1.907,3.428-1.85  c1.386,0.019,2.664,0.754,3.376,1.943c7.265,12.124,14.06,24.683,20.195,37.327c10.667,21.979,19.747,45.004,26.987,68.437  c0.652,2.111-0.53,4.351-2.641,5.003c-0.394,0.122-0.792,0.179-1.183,0.179c-1.708,0-3.29-1.103-3.82-2.82  c-7.122-23.046-16.051-45.691-26.541-67.306c-5.116-10.542-10.697-21.023-16.631-31.236c-12.886,18.588-26.773,30.437-38.122,40.121  c-11.856,10.115-20.423,17.423-26.176,30.139c-3.634,8.032-5.656,17.197-6.008,27.241  C200.416,470.348,198.58,472.079,196.356,471.997z M0.096,97.707c0.48-2.156,2.617-3.517,4.773-3.037  c14.187,3.154,28.342,4.072,42.073,2.727c18.983-1.858,32.081-7.37,45.947-13.205c13.782-5.8,28.034-11.797,48.158-13.767  c7.33-0.718,14.803-0.827,22.27-0.339l7.317-66.524c0.242-2.195,2.215-3.776,4.414-3.539c2.196,0.242,3.78,2.218,3.539,4.414  l-7.465,67.87c21.502-9.853,44.71-14.86,69.108-14.86c8.917,0,38.864,1.134,69.393,14.834l-7.747-67.827  c-0.251-2.195,1.325-4.178,3.52-4.428c2.201-0.249,4.178,1.326,4.428,3.52l3.778,33.076c11.934-5.423,24.252-9.137,36.693-11.057  c19.986-3.084,35.261-0.807,50.032,1.394c14.859,2.215,28.894,4.307,47.749,1.398c13.496-2.083,26.857-6.416,39.711-12.877  c1.973-0.992,4.379-0.197,5.37,1.777c0.992,1.974,0.197,4.378-1.777,5.37c-13.602,6.837-27.761,11.425-42.084,13.636  c-20.054,3.096-35.352,0.814-50.148-1.392c-14.834-2.211-28.844-4.3-47.633-1.4c-12.536,1.935-24.951,5.835-36.953,11.555  l3.134,27.434c21.061,0.214,52.335-0.767,87.436-6.184c28.136-4.342,56.131-11.036,83.208-19.894  c2.097-0.688,4.358,0.458,5.045,2.558c0.687,2.1-0.458,4.358-2.558,5.045c-27.489,8.993-55.91,15.789-84.476,20.197  c-32.746,5.053-62.213,6.305-83.362,6.305c-1.504,0-2.962-0.007-4.379-0.019l13.004,113.848  c2.458,21.516,11.168,41.904,25.19,58.959c11.277,13.717,20.399,28.951,27.113,45.279c4.812,11.701,8.384,23.982,10.618,36.5  c4.975,27.882,19.632,52.363,41.271,68.933c7.915,6.061,16.351,11.548,25.072,16.311c12.712,6.942,26.242,12.471,40.215,16.432  c2.125,0.603,3.36,2.814,2.757,4.939c-0.499,1.761-2.103,2.91-3.846,2.91c-0.361,0-0.728-0.049-1.093-0.153  c-14.546-4.124-28.633-9.879-41.867-17.107c-9.08-4.959-17.862-10.672-26.101-16.981c-23.23-17.787-38.958-44.024-44.284-73.879  c-2.133-11.958-5.545-23.688-10.14-34.863c-6.412-15.592-15.124-30.14-25.894-43.242c-15.003-18.249-24.326-40.079-26.958-63.131  l-9.206-80.595c-6.323-4.599-12.991-8.273-19.649-11.198l10.729,93.924c3.042,26.64,13.787,51.835,31.071,72.86  c9.598,11.674,17.359,24.631,23.066,38.51c4.089,9.942,7.125,20.382,9.025,31.031c6.145,34.446,24.345,64.761,51.248,85.36  c8.978,6.875,18.547,13.101,28.445,18.505c16.58,9.055,34.267,15.951,52.57,20.495c2.144,0.533,3.451,2.702,2.918,4.846  c-0.452,1.82-2.084,3.037-3.879,3.037c-0.319,0-0.643-0.039-0.967-0.119c-18.967-4.71-37.296-11.855-54.477-21.238  c-9.846-5.377-19.374-11.545-28.351-18.332c-8.816,0.085-17.601,1.463-26.03,4.147c-8.121,2.586-15.78,6.321-22.841,11.102  c6.085,6.525,9.89,13.44,12.189,18.882c0.86,2.035-0.093,4.382-2.128,5.241c-0.508,0.215-1.036,0.316-1.555,0.316  c-1.56,0-3.042-0.917-3.687-2.444c-3.037-7.189-9.037-17.314-20.376-24.722c-3.652-2.386-7.568-4.288-11.694-5.701  c3.25,9.173,6.259,18.427,8.973,27.748c0.618,2.121-0.601,4.341-2.722,4.958c-0.374,0.109-0.75,0.161-1.12,0.161  c-1.733,0-3.33-1.135-3.838-2.883c-7.878-27.058-18.1-53.609-30.38-78.915c-12.255-25.252-26.71-49.581-43.025-72.423  c-3.894,11.764-9.132,22.851-15.621,33.052c-11.733,18.443-24.951,29.721-36.613,39.671c-13.369,11.406-24.915,21.257-33.111,39.374  c-5.191,11.472-8.016,24.334-8.396,38.232c-0.061,2.208-1.887,3.936-4.108,3.889c-2.208-0.061-3.95-1.899-3.889-4.108  c0.119-4.372,0.472-8.649,1.042-12.829c-7.363-4.825-15.422-8.077-24.008-9.64c-8.593-1.565-17.268-1.363-25.834,0.565  c-0.045,1.448-0.072,2.894-0.072,4.338c0,5.662,0.364,11.442,1.082,17.18c0.274,2.192-1.281,4.191-3.473,4.466  c-0.168,0.021-0.336,0.031-0.501,0.031c-1.988,0-3.711-1.48-3.964-3.504c-0.758-6.066-1.143-12.18-1.143-18.173  c0-6.419,0.427-12.9,1.268-19.261c2.671-20.191,12.383-39.34,27.345-53.922c17.925-17.468,30.49-39.166,36.337-62.748  c4.951-19.972,5.064-41.354,0.326-61.835c-1.396-6.034-2.135-12.28-2.217-18.669c0-0.007-0.001-0.013-0.001-0.02  c-0.048-3.866,0.143-7.785,0.578-11.741l8.296-75.421c0.001-0.005,0.001-0.009,0.002-0.014l4.765-43.322  c-8.244,3.701-14.807,7.704-19.574,11.032l-11.623,105.672c-1.387,12.606-0.711,24.959,2.009,36.716  c4.134,17.864,4.047,35.725-0.257,53.086c-6.33,25.532-20.504,43.41-31.281,53.912c-17.927,17.471-29.573,40.487-32.791,64.811  c-0.949,7.172-1.43,14.481-1.43,21.724c0,5.728,0.305,11.534,0.906,17.258c0.231,2.197-1.363,4.165-3.56,4.396  c-0.142,0.015-0.283,0.022-0.423,0.022c-2.021,0-3.757-1.527-3.973-3.583c-0.63-6.001-0.95-12.089-0.95-18.094  c0-7.592,0.504-15.254,1.499-22.773c3.453-26.095,15.932-50.774,35.139-69.491c10.031-9.776,23.222-26.405,29.099-50.107  c3.998-16.127,4.075-32.733,0.228-49.358c-2.924-12.637-3.653-25.891-2.167-39.395l10.657-96.893  c-19.444,4.136-39.262,7.221-59.002,9.153c-17.206,1.685-34.556,2.527-51.895,2.527c-14.367,0-28.723-0.578-42.999-1.736  c-2.202-0.178-3.842-2.108-3.664-4.31s2.108-3.835,4.31-3.664c31.032,2.516,62.479,2.253,93.468-0.78  c20.32-1.989,40.724-5.216,60.703-9.573l3.888-35.352c0,0,0-0.001,0-0.001l0.057-0.522c-6.915-0.433-13.832-0.325-20.615,0.339  c-18.917,1.852-31.992,7.354-45.834,13.178c-13.805,5.81-28.081,11.816-48.271,13.793c-4.347,0.426-8.733,0.638-13.146,0.638  c-10.38,0-20.908-1.175-31.443-3.517C0.977,102-0.383,99.864,0.096,97.707z M194.49,99.948l-4.452,40.477  c7.223-3.249,16.11-6.467,26.458-8.798l4.21-38.275C210.898,94.766,202.142,97.148,194.49,99.948z M228.855,92.436l-4.135,37.596  c4.831-0.79,9.928-1.36,15.277-1.648c0.172-0.021,0.341-0.029,0.511-0.028c2.373-0.12,4.777-0.203,7.247-0.203  c1.644,0,4.503,0.052,8.268,0.31l-4.098-35.878c-5.581-0.538-9.734-0.623-11.694-0.623  C236.309,91.962,232.521,92.134,228.855,92.436z M291.324,143.403c-20.288-6.709-38.365-7.25-43.57-7.25  c-0.718,0-1.415,0.028-2.125,0.039c3.565,13.481,6.794,27.121,9.665,40.829c9.298,0.587,24.484,2.455,40.803,8.167L291.324,143.403z   M248.723,184.768c-0.352-0.004-0.683-0.006-0.969-0.006c-28.623,0-50.573,8.806-64.42,16.61l-2.379,21.631  c-0.353,3.211-0.517,6.389-0.523,9.53l7.435,10.525c18.399-8.684,39.025-13.267,59.887-13.267c1.578,0,4.626,0.052,8.746,0.354  c-0.842-5.954-1.746-11.891-2.719-17.799C252.267,203.151,250.571,193.949,248.723,184.768z M262.269,284.182  c-1.109-15.297-2.67-30.66-4.67-45.934c-4.698-0.396-8.159-0.457-9.845-0.457c-19.497,0-38.04,4.009-55.197,11.906l7.201,10.194  c6.174,8.739,6.349,20.604,0.435,29.525l-18.3,27.606c-0.926,3.652-2.014,7.256-3.239,10.813c9.915,1.124,19.441,3.942,28.377,8.441  c13.46,6.775,22.775,16.002,28.794,23.669c3.137-3.773,6.225-7.922,9.234-12.576C246.32,329.328,250.35,291.806,262.269,284.182z   M185.372,297.293l8.152-12.298c4.104-6.191,3.983-14.425-0.301-20.489l-11.236-15.905c0.145,0.719,0.283,1.441,0.448,2.154  C185.98,266.073,186.949,281.872,185.372,297.293z M247.065,176.769c-2.863-13.507-6.073-26.944-9.616-40.218  c-20.765,1.58-37.294,7.669-48.437,13.202l-4.617,41.973C199.034,184.289,220.293,176.894,247.065,176.769z M174.235,429.128  c-6.556-6.432-14.428-11.549-22.942-14.846c-8.368-3.24-17.46-4.755-26.435-4.462c-3.131,7.116-5.279,14.62-6.294,22.291  c-0.246,1.858-0.441,3.729-0.611,5.604c8.877-1.711,17.85-1.786,26.751-0.166c8.535,1.554,16.599,4.598,24.067,9.023  C170.092,440.505,171.915,434.679,174.235,429.128z M191.06,402.61c-4.825-5.02-12.134-10.942-22.26-14.839  c-8.304-3.196-17.348-4.51-26.246-3.876c-5.35,5.39-9.934,11.42-13.645,17.898c8.626,0.219,17.246,1.921,25.274,5.029  c8.669,3.357,16.738,8.404,23.648,14.703C181.725,414.118,186.199,408.012,191.06,402.61z M210.549,384.417  c0.579-0.494,1.159-0.99,1.74-1.486c-6.187-7.132-13.736-13.122-22.028-17.44c-8.164-4.252-16.918-6.896-26.045-7.913  c-4.104,6.391-8.732,12.493-13.876,18.227c7.295,0.366,14.533,1.884,21.332,4.501c11.301,4.349,19.495,10.924,24.947,16.546  C201.079,392.508,205.765,388.499,210.549,384.417z M230.436,366.052c-5.412-7.168-14.117-16.146-27.002-22.632  c-8.691-4.375-18.002-6.992-27.707-7.837c-2.055,4.968-4.409,9.815-7.038,14.527c8.818,1.374,17.297,4.134,25.267,8.286  c9.178,4.78,17.53,11.406,24.375,19.293C222.378,374.106,226.432,370.317,230.436,366.052z M269.694,306.537  c4.707,6.37,9.269,12.862,13.682,19.461c-7.199-26.18-14.361-35.191-16.562-35.191c-0.019,0-0.036,0-0.054,0.001  c-2.119,0.15-8.234,10.313-11.903,38.559c3.114-6.879,5.721-14.061,7.762-21.511c0.405-1.478,1.618-2.594,3.124-2.875  C267.25,304.7,268.784,305.304,269.694,306.537z M329.321,334.675c-13.202,5.761-21.933,14.526-27.243,21.52  c3.108,5.432,6.112,10.921,9.016,16.458c6.288-6.448,15.582-13.851,28.286-18.852c7.36-2.897,15.061-4.655,22.951-5.283  c-0.558-2.432-1.063-4.883-1.505-7.357c-0.726-4.069-1.635-8.103-2.706-12.089C348.096,328.829,338.417,330.707,329.321,334.675z   M335.507,426.668c7.86-6.209,16.443-11.394,25.601-15.424c8.42-3.705,17.221-6.38,26.239-8.018  c-4.55-6.156-8.61-12.685-12.15-19.528c-6.823,0.378-13.487,1.746-19.843,4.093c-13.005,4.802-22.148,12.743-27.887,19.165  C330.281,413.465,332.963,420.039,335.507,426.668z M393.024,410.411c-9.888,1.396-19.532,4.124-28.695,8.155  c-7.8,3.432-15.156,7.763-21.959,12.9c4.866,1.636,9.484,3.859,13.787,6.671c1.864,1.218,3.588,2.503,5.208,3.828  c8.103-5.708,16.96-10.127,26.388-13.129c6.292-2.004,12.757-3.332,19.3-4.01C402.029,420.351,397.345,415.533,393.024,410.411z   M364.362,356.381c-7.591,0.458-14.996,2.088-22.051,4.865c-12.767,5.026-21.707,12.745-27.335,18.961  c1.088,2.162,2.165,4.328,3.221,6.503c1.974,4.067,3.875,8.176,5.743,12.304c6.429-6.584,15.857-14.007,28.644-18.729  c6.084-2.246,12.418-3.69,18.896-4.325C368.671,369.653,366.291,363.112,364.362,356.381z M330.431,275.296  c-4.613-5.611-8.781-11.505-12.493-17.633c-17.875-11.667-37.876-16.507-52.144-18.496c1.898,14.775,3.38,29.626,4.452,44.416  c13.348,5.942,22.496,44.633,26.119,62.885c0.463,0.769,0.921,1.54,1.38,2.311c6.034-7.287,15.219-15.695,28.376-21.436  c9.386-4.095,19.315-6.196,29.589-6.286c-1.042-3.138-2.18-6.24-3.433-9.288C346.874,298.626,339.523,286.355,330.431,275.296z   M297.591,198.264l-0.478-4.188c-15.628-6.015-30.525-8.169-40.159-8.922c1.713,8.622,3.299,17.26,4.721,25.891  c1.089,6.609,2.091,13.255,3.017,19.921c12.356,1.559,29.431,5.164,46.111,13.433C303.91,229.874,299.425,214.321,297.591,198.264z   M286.377,100.093c-9.489-3.358-18.613-5.333-26.286-6.495l4.071,35.642c7.379,0.899,16.467,2.528,26.168,5.458L286.377,100.093z   M170.093,81.66l-2.468,22.434c12.325-7.601,31.71-16.598,57.195-19.312c0.023-0.002,0.047-0.006,0.07-0.008  c4.893-0.518,10.003-0.813,15.339-0.813c2.432,0,8.034,0.119,15.552,1c0.107,0.006,0.211,0.023,0.316,0.037  c14.87,1.772,37.07,6.539,57.167,19.17l-2.575-22.546c-30.513-14.981-61.536-16.176-70.46-16.176  C215.333,65.448,191.753,70.912,170.093,81.66z"/></svg>
