<svg xmlns="http://www.w3.org/2000/svg" xmlns:xlink="http://www.w3.org/1999/xlink" version="1.1" x="0px" y="0px" viewBox="0 0 498.986 580.00125" style="enable-background:new 0 0 498.986 464.001;" xml:space="preserve"><path d="M126.43,47.414C107,85.83,96.63,125.4,97.23,158.835c0.49,27.301,8.193,48.369,21.69,59.321  c14.298,11.604,38.089,14.804,66.993,9.011c34.729-6.957,73.22-26.16,108.382-54.07c1.729-1.374,4.246-1.084,5.62,0.646  s1.084,4.247-0.646,5.62c-36.136,28.684-75.835,48.447-111.784,55.648c-9.865,1.978-19.222,2.956-27.914,2.956  c-18.869,0-34.613-4.607-45.692-13.598c-15.361-12.465-24.115-35.688-24.648-65.389c-0.623-34.714,10.053-75.617,30.06-115.175  c0.997-1.972,3.405-2.762,5.375-1.764C126.637,43.036,127.427,45.443,126.43,47.414z M498.675,186.623  c-0.642,1.533-2.127,2.457-3.691,2.457c-0.515,0-1.038-0.1-1.543-0.311c-7.745-3.242-15.939-4.886-24.354-4.886  c-6.528,0-13.128,1.061-19.367,3.064c2.202,3.652,3.378,7.833,3.378,12.196c0,6.393-2.522,12.399-7.102,16.914l-15.579,15.358  c4.032,9.353,6.027,19.558,5.683,29.96c-0.633,19.148-9.107,37.115-23.394,49.879c5.016,7.089,8.227,15.223,9.44,23.692  c0.084,0.307,0.12,0.62,0.129,0.934c0.621,4.947,0.574,9.995-0.207,15.005c-2.385,15.3-11.277,28.931-24.396,37.397  c-76.749,49.535-159.158,75.718-238.318,75.718c-56.837,0-111.028-14.215-156.716-41.108c-1.904-1.121-2.539-3.573-1.418-5.477  s3.573-2.539,5.477-1.418c44.458,26.17,97.246,40.002,152.657,40.002c77.618,0,158.526-25.741,233.98-74.44  c11.203-7.23,18.794-18.86,20.829-31.908c0.304-1.951,0.464-3.909,0.515-5.863c-16.072,12.126-32.719,23.278-49.594,33.215  c-5.964,8.44-13.432,13.578-21.652,14.858c-1.394,0.217-2.792,0.324-4.188,0.324c-0.604,0-1.208-0.027-1.812-0.067  c-8.719,4.405-17.593,8.547-26.422,12.336c-4.957,7.894-11.448,12.952-18.846,14.649c-1.89,0.433-3.804,0.646-5.726,0.646  c-3.447,0-6.93-0.704-10.404-2.007c-16.894,5.594-33.975,10.053-50.821,13.266c-6.099,6.812-13.217,10.641-20.664,11.084  c-0.498,0.029-1,0.044-1.496,0.044c-5.863,0-11.547-2.057-16.87-5.836c-7.771,0.62-15.568,0.976-23.237,1.06  c-7.032,5.822-14.891,8.895-22.815,8.895c-9.518,0-18.582-4.252-26.501-12.24c-19.434-2.922-38.291-7.776-56.116-14.435  c-5.416,2.94-10.818,4.448-15.964,4.448c-2.341,0-4.629-0.309-6.841-0.931c-10.093-2.837-17.783-11.752-22.269-25.491  c-3.385-2.081-6.755-4.245-10.027-6.474c-1.825-1.244-2.296-3.732-1.052-5.558c1.244-1.824,3.733-2.296,5.558-1.052  c0.904,0.616,1.833,1.214,2.751,1.821c-0.016-0.089-0.035-0.173-0.051-0.262c-1.266-7.364-1.767-15.388-1.535-23.82  c-1.86-1.417-3.714-2.863-5.52-4.329l-0.429-0.35c-1.71-1.398-1.963-3.918-0.565-5.628c1.398-1.71,3.917-1.964,5.628-0.565  l0.406,0.331c0.35,0.284,0.711,0.564,1.064,0.847c0.976-10.8,3.063-22.085,6.255-33.401c1.696-6.015,3.629-11.796,5.755-17.308  c-7.108-7.482-13.616-15.682-19.356-24.427c-1.212-1.847-0.698-4.327,1.149-5.539c1.846-1.212,4.327-0.697,5.539,1.149  c4.815,7.336,10.198,14.266,16.032,20.684c2.858-6.453,5.987-12.461,9.319-17.947C13.746,251.694,3.634,219.327,0.677,171.43  C-3.029,111.428,8.502,54.489,34.951,2.196c0.997-1.972,3.402-2.762,5.375-1.764c1.972,0.997,2.761,3.403,1.764,5.375  C16.291,56.814,5.044,112.372,8.661,170.937c2.765,44.769,11.857,75.243,29.307,97.773c10.993-15.716,23.671-25.945,35.885-28.312  c-36.131-46.442-32.761-131.087,9.406-214.456c0.997-1.972,3.405-2.761,5.375-1.764c1.972,0.997,2.761,3.403,1.764,5.375  c-42.359,83.75-44.744,168.221-6.109,210.83c0.609,0.123,1.217,0.262,1.82,0.432c7.294,2.051,13.506,7.438,18.031,15.598  c6.171,3.581,12.953,6.484,20.201,8.646c5.028-2.697,10.336-4.095,15.793-4.095c7.906,0,15.746,3.057,22.766,8.853  c1.844-0.042,3.707-0.119,5.583-0.228c6.927-10.112,15.448-15.814,24.803-16.37c7.169-0.424,14.413,2.305,21.07,7.902  c3.571-1.074,7.179-2.251,10.78-3.514c5.195-14.099,13.525-22.986,24.048-25.398c7.06-1.62,14.717-0.12,22.275,4.317  c2.158-1.206,4.317-2.442,6.469-3.708c0.598-2.676,1.271-5.278,2.022-7.794c6.388-21.395,17.65-34.383,31.713-36.573  c7.642-1.192,15.699,0.998,23.428,6.322c20.107-8.942,43.231-8.069,62.383,1.626l14.372-14.168  c8.774-8.651,22.673-9.23,32.145-1.757c8.031-3.036,16.458-4.59,25.095-4.59c9.481,0,18.714,1.853,27.443,5.506  C498.568,182.242,499.528,184.586,498.675,186.623z M404.181,210.087c-28.246,29.523-59.302,54.467-92.394,74.205  c0.286,2.699,0.637,5.418,1.064,8.153c0.614,3.932,1.363,7.79,2.232,11.556c36.642-20.945,70.923-47.896,102.004-80.203  c-2.661-3.846-5.761-7.428-9.288-10.652C406.628,212.075,405.42,211.057,404.181,210.087z M311.096,275.375  c30.843-18.817,59.855-42.285,86.382-69.855c-18.279-10.817-41.468-12.072-61.081-2.539c-0.006,0.003-0.013,0.004-0.02,0.007  c-0.009,0.004-0.017,0.01-0.027,0.015C319.211,211.063,309.351,240.709,311.096,275.375z M304.07,369.592  c-7.876-10.655-14.76-24.608-19.925-40.838c-7.976,3.575-16.031,6.852-24.035,9.782c4.894,16.234,12.153,30.42,20.469,40.788  C288.416,376.357,296.283,373.097,304.07,369.592z M281.856,320.988c-1.623-5.954-3.019-12.168-4.156-18.602  c-7.655,3.564-15.382,6.831-23.062,9.751c0.628,5.423,1.567,10.96,2.851,16.541c0.161,0.702,0.337,1.395,0.507,2.091  C265.946,327.84,273.938,324.565,281.856,320.988z M276.074,243.11c-0.925,0.52-1.852,1.049-2.773,1.556  c-13.802,7.69-20.977,31.228-19.385,59.178c7.501-2.912,15.038-6.158,22.497-9.691C273.941,276.193,273.85,258.696,276.074,243.11z   M199.111,400.133c15.517-2.028,31.314-5.236,47.081-9.568c-7.504-11.413-14.038-25.677-18.864-41.87  c-0.445,0.113-0.89,0.234-1.335,0.345c-13.361,3.328-26.685,5.7-39.677,7.085C188.189,373.004,192.794,388.331,199.111,400.133z   M225.191,340.984c-0.39-1.532-0.766-3.078-1.125-4.639c-1.05-4.564-1.928-9.116-2.637-13.627c-0.686,0.176-1.373,0.355-2.051,0.523  c-11.339,2.825-22.636,4.889-33.641,6.165c-0.415,6.055-0.464,12.336-0.094,18.745c12.571-1.349,25.471-3.651,38.415-6.876  C224.435,341.182,224.813,341.08,225.191,340.984z M222.327,267.009c-2.567,0.838-5.126,1.63-7.662,2.37  c-14.19,5.098-24.764,25.653-28.135,51.881c10.122-1.248,20.496-3.184,30.913-5.779c0.963-0.24,1.937-0.489,2.914-0.744  c-1.904-16.79-1.378-32.756,1.647-46.346C222.109,267.924,222.218,267.467,222.327,267.009z M178.016,428.84  c-4.327-4.901-8.292-11.022-11.764-18.143c-2.307,0.053-4.615,0.089-6.897,0.089c-8.066,0-16.11-0.338-24.008-0.997  c6.986,11.841,16.155,19.226,26.191,19.596C166.976,429.348,172.49,429.156,178.016,428.84z M162.753,402.758  c-5.144-12.916-8.814-28.347-10.422-45.28c-10.364-0.308-20.551-1.295-30.382-2.962c0.113,17.659,3.512,33.973,9.11,46.835  C141.394,402.407,152.033,402.88,162.753,402.758z M151.62,330.813c-9.333-0.352-18.467-1.336-27.25-2.939  c-1.15,5.887-1.914,12.106-2.244,18.544c9.567,1.681,19.494,2.705,29.615,3.043C151.395,343.142,151.36,336.904,151.62,330.813z   M160.894,284.012c0.885-2.181,1.822-4.251,2.802-6.216c-0.692,0.018-1.391,0.048-2.076,0.057c-0.002,0-0.003,0-0.005,0.001  c-15.476,0.534-28.902,17.704-35.44,42.22c8.362,1.507,17.063,2.425,25.958,2.751C153.393,308.477,156.356,295.196,160.894,284.012z   M106.003,424.629c-1.353-2.005-2.656-4.142-3.903-6.405c-2.517-4.569-4.727-9.538-6.629-14.812  c-18.111-4.36-35.421-10.658-51.584-18.779c2.478,12.524,7.605,22.206,15.096,26.969C73.977,417.298,89.753,421.655,106.003,424.629  z M92.63,394.452c-3.477-12.546-5.329-26.444-5.329-40.841c0-2.753,0.077-5.486,0.21-8.197c-13.95-5.102-27.053-11.79-39.048-19.958  c-0.293,0.963-0.581,1.929-0.857,2.906c-4.642,16.462-6.227,32.683-5.063,46.556C58.168,383.268,74.977,389.824,92.63,394.452z   M51.108,317.543c11.348,7.96,23.765,14.534,37.025,19.578c0.654-6.504,1.688-12.828,3.094-18.88  c-11.644-4.772-22.499-10.865-32.353-18.188C55.995,305.468,53.379,311.334,51.108,317.543z M102.1,288.998  c4.143-7.52,8.901-13.629,14.092-18.206c-5.65-2.045-11.006-4.53-16.004-7.426c-12.658,0.621-26.357,12.058-37.292,29.694  c9.245,6.97,19.433,12.804,30.388,17.385C95.597,302.664,98.551,295.441,102.1,288.998z M49.728,414.421  c-8.106-7.886-13.2-20.826-14.911-36.489c-0.01-0.078-0.018-0.155-0.023-0.234c-1.636-15.304-0.054-33.186,5.112-51.508  c10.48-37.163,32.644-65.138,54.535-70.088c-2.992-3.92-6.507-6.464-10.497-7.586c-1.548-0.435-3.141-0.647-4.766-0.647  c-19.875,0-44.76,31.656-56.552,73.47c-6.417,22.755-8.235,45.267-5.12,63.39c2.896,16.845,9.956,28.023,19.371,30.67  C40.846,416.514,45.15,416.184,49.728,414.421z M151.591,435.388c-21.75-8.325-37.654-41.512-37.654-81.777  c0-40.263,15.917-73.446,37.687-81.76c-3.735-1.919-7.578-2.887-11.49-2.887c-11.52,0-22.539,8.486-31.027,23.894  c-8.903,16.162-13.807,37.738-13.807,60.753c0,16.164,2.427,31.608,6.952,44.975c0.006,0.015,0.01,0.03,0.016,0.045  c1.915,5.649,4.196,10.934,6.839,15.733c8.488,15.408,19.507,23.894,31.027,23.894C144.034,438.258,147.866,437.296,151.591,435.388  z M215.829,429.033c-8.446-3.982-16.08-11.892-22.283-22.542c-0.045-0.076-0.091-0.149-0.131-0.228  c-8.075-13.961-13.694-32.592-15.449-53.316c-0.001-0.012-0.005-0.023-0.007-0.035c-0.001-0.011,0.001-0.021,0-0.032  c-0.11-1.312-0.209-2.631-0.288-3.959c-0.483-8.092-0.342-15.967,0.346-23.477c0.003-0.03,0.004-0.059,0.008-0.089  c2.599-28.181,13-51.148,27.926-60.557c-3.707-2.41-7.446-3.624-11.173-3.624c-0.339,0-0.678,0.01-1.018,0.03  c-9.754,0.58-19.031,9.989-25.454,25.815c-6.909,17.026-9.94,39.387-8.534,62.963c2.142,35.908,14.562,66.923,29.792,78.891  c0.17,0.112,0.334,0.231,0.485,0.368c4.502,3.405,9.24,5.151,14.026,4.865C208.168,433.865,212.104,432.162,215.829,429.033z   M266.301,412.464c-5.239-3.722-10.346-8.784-15.157-14.98c-15.873,4.495-31.805,7.895-47.487,10.114  c5.729,8.215,12.439,13.78,19.583,15.648C237.504,420.544,251.945,416.924,266.301,412.464z M301.373,404.167  c-8.715-2.428-17.294-8.574-25.021-17.493c-0.044-0.051-0.093-0.099-0.134-0.153c-11.604-13.459-21.267-33.188-26.526-56.051  c-8.773-38.145-2.75-73.82,14.21-88.866c-3.094-1.359-6.094-2.042-8.979-2.042c-1.342,0-2.66,0.147-3.951,0.444  c-9.679,2.219-17.391,13.198-21.158,30.123c-4.05,18.193-3.323,41.072,2.048,64.423c8.608,37.425,27.691,67.515,45.786,75.255  c0.122,0.049,0.244,0.095,0.36,0.156c4.23,1.741,8.402,2.255,12.369,1.345C294.469,410.37,298.151,407.975,301.373,404.167z   M325.782,388.942c-5.708-2.734-11.265-7.132-16.489-12.934c-7.606,3.469-15.296,6.712-22.975,9.686  c6.845,6.724,14.154,10.844,21.296,11.517C313.669,394.618,319.745,391.847,325.782,388.942z M355.26,376.487  c-7.721-2.575-15.145-7.982-21.861-15.576c-0.064-0.063-0.121-0.134-0.181-0.202c-10.46-11.91-19.174-29.156-24.558-49.389  c-0.015-0.046-0.023-0.093-0.037-0.139c-1.492-5.624-2.734-11.47-3.677-17.503c-0.577-3.692-1.024-7.351-1.358-10.97  c-0.002-0.014-0.002-0.029-0.004-0.043c-3.438-37.341,5.831-70.078,23.584-83.405c-3.852-2.085-7.638-3.133-11.323-3.133  c-0.992,0-1.976,0.076-2.952,0.228c-10.688,1.664-19.901,12.947-25.278,30.957c-5.755,19.275-6.728,43.953-2.739,69.487  c7.942,50.847,34.183,90.76,57.326,87.16C346.949,383.22,351.324,380.714,355.26,376.487z M342.629,359.102  c5.976,5.839,12.393,9.596,18.878,10.722c17.88-10.557,35.498-22.502,52.431-35.536c-1.174-6.396-3.694-12.525-7.443-17.959  C386.004,332.445,364.559,346.811,342.629,359.102z M421.334,230.914c-31.744,32.711-66.752,59.969-104.171,81.106  c4.717,16.445,11.752,30.7,19.971,40.981c23.257-12.914,45.988-28.199,67.603-45.479c14.252-11.394,22.769-28.31,23.368-46.411  C428.455,250.521,426.06,240.164,421.334,230.914z M445.098,199.143c0-4.234-1.676-8.217-4.718-11.216  c-6.319-6.23-16.599-6.229-22.917,0l-12.819,12.638c0.356,0.236,0.703,0.486,1.055,0.729c0.177,0.1,0.342,0.22,0.506,0.349  c2.43,1.707,4.77,3.567,6.991,5.597c4.769,4.359,8.863,9.288,12.217,14.631c0.187,0.251,0.35,0.515,0.471,0.795  c0.253,0.415,0.498,0.834,0.742,1.254l13.755-13.56C443.423,207.361,445.098,203.377,445.098,199.143z"/></svg>