<svg xmlns="http://www.w3.org/2000/svg" xmlns:xlink="http://www.w3.org/1999/xlink" xml:space="preserve" version="1.1" style="shape-rendering:geometricPrecision;text-rendering:geometricPrecision;image-rendering:optimizeQuality;" viewBox="0 0 60000 75000" x="0px" y="0px" fill-rule="evenodd" clip-rule="evenodd"><defs><style type="text/css">
   
    .fil0 {fill:black;fill-rule:nonzero}
   
  </style></defs><g><path class="fil0" d="M53347 39869c-161,35 -396,47 -645,47 -428,0 -897,-30 -1077,-44 -704,-55 -1400,-147 -2088,-267 -111,-4 -220,-23 -326,-59 -2205,-413 -4338,-1102 -6452,-1785 -798,-258 -1592,-514 -2386,-754 -5,-1 -11,-3 -16,-5 -1817,-549 -3629,-1010 -5458,-1195 -1692,-171 -3620,11 -5554,392 -2410,475 -4818,1256 -6793,2050 -842,339 -1642,685 -2437,1029 -4035,1747 -7986,3457 -12490,2319 -380,-96 -774,-219 -1139,-405 -385,-197 -736,-463 -1004,-838 -489,-687 -904,-1847 -1189,-3303 -270,-1378 -428,-3032 -428,-4809 0,-2110 224,-4049 596,-5555 395,-1603 979,-2747 1665,-3142 257,-148 549,-187 833,-170 251,15 498,75 701,137 1447,441 2821,576 4153,500 555,-88 1092,-151 1611,-193 2261,-405 4434,-1332 6680,-2291 727,-310 1461,-624 2218,-928 2018,-811 4477,-1609 6937,-2093 2000,-394 4005,-581 5785,-402 2720,274 5358,1126 8026,1988 580,187 1162,375 1746,558 359,94 730,206 1114,338 3,1 5,2 8,3 1214,357 2439,674 3683,897 22,2 43,6 64,11 590,104 1185,187 1784,243 181,17 525,-5 853,-26 251,-16 493,-32 684,-30 76,-16 153,-24 230,-24 890,0 1648,1062 2153,2779 464,1576 751,3743 751,6128 0,2385 -287,4552 -751,6128 -484,1643 -1199,2687 -2040,2773zm-35669 -9739l-4806 -1957c-205,-83 -303,-316 -220,-520 55,-136 177,-225 312,-245l5608 -969c217,-37 424,109 461,327 12,68 5,135 -16,197l-251 907c789,156 1489,377 2044,699 679,394 1142,934 1292,1678 199,982 -185,1983 -986,2854 -773,840 -1944,1566 -3348,2027 -1314,431 -3012,853 -4401,1198l-269 67c-214,53 -430,-78 -483,-292 -53,-214 78,-430 292,-483l269 -67c1372,-341 3051,-758 4345,-1182 1272,-418 2324,-1065 3008,-1808 630,-685 937,-1443 793,-2157 -100,-493 -426,-863 -911,-1144 -485,-281 -1125,-477 -1858,-618l-340 1225c-59,212 -278,337 -491,278 -15,-4 -29,-9 -43,-15l0 1zm9771 3262c12,-228 60,-455 143,-670 56,-145 128,-285 215,-417 -220,84 -434,186 -643,306 -1198,691 -2584,1981 -4040,3338 -806,751 -1633,1521 -2469,2228 539,-231 1075,-458 1600,-669 1421,-571 3062,-1136 4768,-1590 -127,-72 -244,-166 -347,-281l-2 0c-250,-280 -365,-635 -349,-982 16,-343 161,-677 429,-925 6,-5 12,-10 17,-16 198,-176 433,-283 678,-322zm3910 -1194c343,436 499,964 475,1479 -25,517 -231,1023 -614,1414 1306,-155 2581,-197 3757,-78 795,80 1584,210 2368,375 -348,-216 -698,-437 -1048,-659 -1408,-892 -2813,-1782 -4027,-2242 -297,-113 -602,-210 -910,-288zm-2318 2593c227,113 478,162 725,146 293,-19 581,-132 817,-342l1 1c283,-253 435,-600 452,-956 17,-360 -103,-728 -363,-1020 -261,-292 -613,-453 -972,-477 -357,-24 -720,88 -1003,341 -167,149 -288,329 -363,523 -61,158 -92,327 -92,498 159,74 306,180 432,317l1 -1 16 17c244,273 359,616 350,955zm-1338 -617c-143,-9 -288,35 -401,136 -113,101 -174,239 -181,381 -7,145 42,294 149,413l-1 1c106,118 248,183 392,192 143,9 288,-35 401,-136 113,-101 174,-239 181,-381 7,-145 -42,-294 -149,-413l1 -1c-106,-118 -248,-183 -392,-192zm-10607 5505c1802,-887 3696,-2651 5484,-4316 1487,-1385 2903,-2704 4187,-3444 846,-488 1770,-712 2707,-739 1042,-29 2098,187 3076,557 1297,491 2734,1402 4174,2314 1350,855 2702,1712 3889,2192 795,241 1590,498 2388,755 1681,543 3375,1090 5102,1494 -261,-440 -492,-1000 -686,-1655 -463,-1566 -749,-3722 -749,-6105 0,-2380 287,-4528 751,-6088 282,-950 643,-1697 1060,-2173 -934,-203 -1855,-449 -2768,-718 -15,-3 -29,-7 -44,-12 -5,-2 -11,-3 -16,-5 -326,-96 -652,-196 -976,-297 -5346,-1411 -7892,1607 -10083,4205 -932,1105 -1804,2139 -2819,2787 -760,485 -1635,707 -2519,722 -957,15 -1928,-215 -2774,-620 -555,-266 -1131,-592 -1757,-947 -2544,-1442 -5941,-3366 -11139,-2984 -1943,352 -3960,338 -6157,-333 -153,-47 -337,-92 -517,-102 -147,-9 -287,5 -389,64 -489,282 -942,1246 -1287,2642 -356,1443 -571,3315 -571,5364 0,1727 153,3329 413,4656 264,1348 632,2400 1055,2993 183,257 435,445 716,588 303,154 641,259 970,342 3265,826 6282,37 9279,-1141zm17691 -18491c374,0 713,155 958,404 244,248 395,590 395,966 0,77 -6,153 -19,227 1316,-1242 2888,-2253 5005,-2478 -2053,-642 -4096,-1203 -6162,-1411 -1692,-171 -3620,11 -5554,392 -2410,475 -4818,1256 -6793,2050 -740,297 -1475,611 -2203,922 -1320,563 -2616,1116 -3921,1564 2429,217 4407,918 6073,1711 -191,-365 -300,-782 -300,-1224 0,-720 288,-1373 753,-1847 467,-475 1111,-769 1823,-769 712,0 1356,294 1823,769 83,84 160,174 230,269 97,-323 272,-612 501,-845 365,-372 870,-602 1427,-602 557,0 1061,230 1427,602 187,190 337,417 439,669 367,-252 809,-400 1285,-400 558,0 1069,203 1468,540 -5,-45 -7,-91 -7,-138 0,-376 151,-717 395,-966 245,-250 584,-404 958,-404zm252 2716c-82,16 -166,24 -252,24 -227,0 -440,-57 -628,-157 72,226 111,467 111,716 0,112 -8,223 -23,331 257,-304 520,-611 792,-914zm137 -1753c-99,-101 -237,-164 -389,-164 -152,0 -290,63 -389,164 -101,103 -163,246 -163,406 0,160 62,304 163,406 99,101 237,164 389,164 152,0 290,-63 389,-164 101,-103 163,-246 163,-406 0,-160 -62,-304 -163,-406zm-9179 4496c-136,70 -279,128 -426,172 -139,41 -282,72 -428,89 610,345 1171,663 1681,907 577,276 1219,459 1869,520 -257,-79 -495,-204 -703,-367 -277,-216 -501,-499 -650,-825 -90,19 -183,29 -279,29 -374,0 -713,-155 -958,-404 -38,-38 -73,-79 -106,-121zm612 -2136c1,-10 2,-19 3,-29 4,-46 6,-104 6,-173 0,-504 -199,-959 -522,-1287 -321,-327 -764,-529 -1254,-529 -490,0 -933,202 -1254,529 -322,328 -522,783 -522,1287 0,504 199,959 522,1287 321,327 764,529 1254,529 175,0 343,-25 500,-72 131,-39 254,-92 369,-158 -2,-31 -3,-62 -3,-93 0,-376 151,-717 395,-966 141,-144 314,-256 506,-326zm3426 -1274c-22,-309 -153,-587 -354,-791 -219,-223 -523,-362 -858,-362 -335,0 -639,138 -858,362 -221,225 -358,537 -358,884 0,226 58,438 160,620 91,163 216,302 364,407 65,-43 132,-82 202,-118 297,-153 632,-239 984,-239 137,0 271,13 401,38 56,-289 165,-559 315,-800zm2520 3505c-186,50 -381,76 -583,76 -135,0 -272,-13 -410,-38 -44,-8 -86,-17 -129,-27 -97,393 -298,745 -572,1024 -190,193 -414,351 -662,463 403,-96 790,-253 1144,-479 415,-265 814,-615 1211,-1018zm-1073 -808c75,27 150,47 224,61 82,15 171,23 266,23 413,0 786,-170 1056,-445 272,-277 440,-661 440,-1086 0,-425 -168,-809 -440,-1086 -270,-275 -644,-445 -1056,-445 -413,0 -786,170 -1056,445 -241,245 -400,574 -433,942 137,89 265,192 379,309 333,339 558,786 620,1283zm-3445 814c94,235 248,439 443,591 231,181 522,288 838,288 381,0 726,-157 975,-411 251,-256 406,-610 406,-1003 0,-393 -155,-748 -406,-1003 -249,-254 -594,-411 -975,-411 -224,0 -434,53 -619,148 -151,77 -286,183 -399,309 72,168 113,352 113,546 0,366 -143,699 -376,946zm-588 -1352c-99,-101 -237,-164 -389,-164 -152,0 -290,63 -389,164 -101,103 -163,246 -163,406 0,160 62,304 163,406 99,101 237,164 389,164 152,0 290,-63 389,-164 101,-103 163,-246 163,-406 0,-160 -62,-304 -163,-406zm24237 13676c67,5 174,13 300,20 -353,-479 -660,-1161 -907,-1999 -464,-1576 -751,-3743 -751,-6128 0,-2385 287,-4552 751,-6128 231,-783 514,-1430 838,-1902 -197,9 -380,11 -524,-3 -619,-58 -1231,-143 -1837,-249 -488,26 -975,853 -1371,2186 -442,1489 -717,3556 -717,5863 0,2311 273,4386 714,5880 349,1182 770,1968 1199,2150 80,15 160,29 240,43 12,2 24,4 35,6 670,117 1346,207 2029,260zm1466 -16206c-13,4 -26,7 -39,9 -452,123 -900,936 -1268,2188 -443,1503 -716,3590 -716,5903 0,2313 274,4399 716,5903 401,1362 895,2204 1388,2204 493,0 987,-842 1388,-2204 443,-1503 716,-3590 716,-5903 0,-2313 -274,-4399 -716,-5903 -401,-1362 -895,-2204 -1388,-2204 -27,0 -54,3 -81,8z"/></g></svg>