<svg xmlns="http://www.w3.org/2000/svg" version="1.1" viewBox="-5.0 -10.0 110.0 135.0">
 <path d="m99.207 13.215h-9.543c-0.56641-2.2148-2.8203-9.3086-8.3164-8.918-4.4062 0.31641-6.8008 5.1328-8.7266 9.0039-0.82812 1.668-1.6094 3.2422-2.4102 4.1914-1.8906 2.2461-5.2773 3.2656-6.8945 3.6406l0.003906-2.4219c0-1.7852-1.4531-3.2383-3.2383-3.2383h-4.125v-3.5938c0-2.4297-1.8398-4.4336-4.1992-4.6953-0.32812-0.67188-1.0469-1.957-2.2734-3.2461-1.6055-1.6914-4.4219-3.7109-8.7031-3.7109-4.1289 0-7.8945 1.7227-10.602 4.8555-2.8711 3.3203-4.3867 7.9688-4.3867 13.441 0 5.1641 0.60938 10.141 1.1992 14.953 0.65625 5.3633 1.2773 10.426 0.76953 14.371-0.76562 5.9766-4.6992 10.91-5.9766 12.379-3.0117-1.668-5.8438-3.543-7.6406-5.457-5.5664-5.9141-12.535-25.199-12.605-25.395-0.14844-0.41406-0.60156-0.625-1.0156-0.48047-0.41406 0.14844-0.625 0.60156-0.48047 1.0156 0.28906 0.80469 7.1484 19.793 12.938 25.945 0.25781 0.27344 0.53906 0.55078 0.83203 0.82031-3.1523 2.4688-5.2969 6.043-6.3828 10.641-0.082032 0.35156 0.082031 0.71875 0.40625 0.88672l8.0039 4.168c0.11328 0.058594 0.24219 0.089844 0.36719 0.089844s0.25391-0.03125 0.36719-0.089844c0.23047-0.12109 0.38672-0.34766 0.41797-0.60547 0.24609-1.957 0.83203-3.7578 1.7656-5.4336 0.92578 1.168 2.5273 3.5039 3.0039 6.1875 0.32812 1.8555 0.066406 4.6406-0.21094 7.5898-0.082031 0.87891-0.16406 1.7656-0.23438 2.6406-5.4141-2.5547-12.062-6.1992-16.398-10.352-1.125-1.0781-2.3008-2.4258-3.4961-4.0078-0.26562-0.35156-0.76172-0.41797-1.1133-0.15625-0.35156 0.26562-0.41797 0.76172-0.15625 1.1133 1.2461 1.6523 2.4766 3.0625 3.6641 4.1992 4.6836 4.4883 11.781 8.3242 17.383 10.926-0.09375 1.8555-0.074219 3.6133 0.21094 5.0938 0.49219 2.5508 2.1406 5.1133 4.5195 7.0352 2.5312 2.043 5.6367 3.168 8.7461 3.168 5.4805 0 8.707-3.2109 9.7227-4.4141l4.0273 1.0547c0.33203 0.085938 0.66406 0.12891 0.99609 0.12891 0.68359 0 1.3594-0.17969 1.9688-0.53516 0.90234-0.52734 1.543-1.375 1.8086-2.3867 0.20312-0.77344 0.16406-1.5703-0.097657-2.3008 1.3359-0.47656 2.3711-1.668 2.5703-3.168 0.10156-0.77344-0.03125-1.543-0.36328-2.2227 1.6406-0.51953 2.918-1.9453 3.1602-3.7617 0.19531-1.4766-0.34766-2.9297-1.3906-3.9219 1.207-0.96484 1.9805-2.4492 1.9805-4.1133 0-2.9062-2.3633-5.2695-5.2695-5.2695h-2.3008c-0.054687-0.58984-0.14453-1.1602-0.27734-1.6992h0.015624c2.6055 0 4.7227-2.1211 4.7227-4.7227v-4.7031h5.293c1.9844 0 3.6016-1.6172 3.6016-3.6016v-4.2227c0-1.9844-1.6172-3.6016-3.6016-3.6016h-0.375v-7.2109c1.4648-0.078125 4.9219-0.035156 6.9492 1.8828 1.2852 1.2148 1.9883 3.1016 2.668 4.9258 0.78516 2.1055 1.5273 4.0938 3.1484 4.9258 1.3242 0.67969 3.1484 0.68359 5.082 0.69141 2.3125 0.007812 4.7031 0.015624 6.4414 1.1055 2.3828 1.5 2.9219 5.6992 3.043 7.4609h-9.3438c-0.4375 0-0.79297 0.35547-0.79297 0.79297v7.9922c0 0.4375 0.35547 0.79297 0.79297 0.79297h1.75v11.438c0 0.4375 0.35547 0.79297 0.79297 0.79297h15.258c0.4375 0 0.79297-0.35547 0.79297-0.79297v-11.438h1.75c0.4375 0 0.79297-0.35547 0.79297-0.79297l0.007812-7.9883c0-0.4375-0.35547-0.79297-0.79297-0.79297h-9.4062c-0.11719-1.9414-0.72266-6.875-3.7891-8.8047-2.1211-1.332-4.8633-1.3438-7.2812-1.3516-1.7383-0.003906-3.3789-0.011719-4.3633-0.51562-1.0742-0.55078-1.7109-2.2578-2.3867-4.0664-0.70703-1.9023-1.5117-4.0586-3.0625-5.5273-2.4414-2.3086-6.2969-2.4102-8.0391-2.3203v-12.273c1.1875-0.30078 2.1172-1.2578 2.3711-2.4609 1.5703-0.32031 5.7812-1.4102 8.1797-4.2617 0.92187-1.0977 1.7461-2.7539 2.6172-4.5078 1.8359-3.6914 3.9141-7.8789 7.418-8.1289 3.9688-0.28906 5.918 5.0977 6.5508 7.3359h-9.1523c-0.4375 0-0.79297 0.35547-0.79297 0.79297v7.9922c0 0.4375 0.35547 0.79297 0.79297 0.79297h1.75v11.438c0 0.4375 0.35547 0.79297 0.79297 0.79297h15.258c0.4375 0 0.79297-0.35547 0.79297-0.79297v-11.434h1.75c0.4375 0 0.79297-0.35547 0.79297-0.79297v-7.9922c0-0.4375-0.35547-0.79297-0.79297-0.79297zm-17.008 67.102v-6.1641h13.672v6.1641zm13.672-7.75h-13.672v-2.8945h13.672zm2.543-4.4805h-18.758v-6.4062h18.758zm-44.043-56.207v3.5938h-6.2734v-3.5938c0-1.7305 1.4062-3.1367 3.1367-3.1367s3.1367 1.4102 3.1367 3.1367zm-25.039 36.168c0.53125-4.1406-0.10156-9.3008-0.76953-14.766-0.58203-4.7656-1.1875-9.6953-1.1875-14.762 0-9.8359 5.5117-16.703 13.406-16.703 5.5 0 8.25 3.7109 9.2578 5.4961-2.0273 0.53125-3.5273 2.3789-3.5273 4.5703v3.5938h-4.125c-1.7852 0-3.2383 1.4531-3.2383 3.2383v3.3867c0 1.5117 1.043 2.7812 2.4453 3.1367v21.078h-0.375c-1.9844 0-3.6016 1.6172-3.6016 3.6016v4.2227c0 1.9844 1.6172 3.6016 3.6016 3.6016h5.293v4.7031c0 0.039063 0.003906 0.078126 0.003906 0.11719-4.0781-0.98047-9.0664 1.0312-11.766 3.5664-1.5273-0.57422-6.5898-2.5352-11.535-5.125 1.582-1.8594 5.3281-6.8164 6.1172-12.957zm13.844-1.7344v-20.973h7.2617v20.977zm-27.574 24.145-6.4727-3.3711c1.0664-4.0703 3.0586-7.2109 5.918-9.3555 1.6094 1.2891 3.543 2.5234 5.5586 3.6641-2.668 2.625-4.3477 5.6641-5.0039 9.0625zm7.7266 1.793c-0.60547-3.4219-2.7383-6.2344-3.668-7.3242 0.67578-0.95312 1.4766-1.8594 2.4062-2.7266 4.6602 2.4844 9.457 4.4023 11.547 5.1992-2.3359 3.1055-3.3789 7.7969-3.4258 8.0156-0.09375 0.42969 0.17969 0.85156 0.60547 0.94531 0.42969 0.09375 0.85156-0.17969 0.94531-0.60547 0.011719-0.054687 1.2227-5.4883 3.7812-8.1562 1.3477-1.4062 3.6875-2.7031 5.957-3.3047 2.6797-0.71094 5.0742-0.44922 6.7422 0.73828 1.8008 1.2812 2.2422 5.1406 1.2109 10.586-0.27344 1.4453-1.5352 2.4922-2.9961 2.4922-1.6797 0-3.0469-1.3672-3.0469-3.0469v-5.2578c0-0.4375-0.35547-0.79297-0.79297-0.79297s-0.79297 0.35547-0.79297 0.79297v5.2578c0 1.6992 0.91797 3.1836 2.2852 3.9922-0.15625 0.37109-0.26172 0.76172-0.31641 1.1719-0.16016 1.2109 0.16016 2.4141 0.90625 3.3828 0.066407 0.085937 0.13672 0.16406 0.20703 0.24219-0.85937 0.62109-1.4531 1.5742-1.5938 2.6602-0.058593 0.45703-0.035156 0.91016 0.058594 1.3477-1.0859 0.47266-1.9219 1.4219-2.2305 2.5938-0.26563 1.0117-0.12109 2.0625 0.40625 2.9648 0.015624 0.027343 0.03125 0.050781 0.046874 0.074219-2.3242-0.26172-5.7695-0.91797-8.2344-2.5664-1.3242-0.88672-2.0586-2.3086-2.4609-3.7852 0-0.003906 0-0.003906-0.003906-0.007813-0.74609-2.7773-0.30078-5.7617-0.29297-5.8125 0.070313-0.43359-0.22656-0.83984-0.66016-0.90625-0.42969-0.066406-0.83984 0.22656-0.90625 0.66016-0.027344 0.17578-0.37109 2.4492 0.015625 5.0078-1.3281-0.51562-3.543-1.4102-6.168-2.6055 0.074219-1.0547 0.17578-2.1367 0.27734-3.207 0.28516-3.0664 0.55469-5.9531 0.19141-8.0195zm-0.35547 17.02c-0.22656-1.1719-0.26562-2.5742-0.21094-4.082 3.2109 1.4375 5.7305 2.3945 6.6797 2.7461 0.50781 1.6523 1.418 3.2461 3.0039 4.3086 3.1523 2.1133 7.5508 2.7422 9.9453 2.9297-1.3242 1.2383-3.8867 3.0156-7.7109 3.0156-5.9727-0.003906-10.871-4.6133-11.707-8.918zm28.695 3.9492c-0.15625 0.60156-0.53906 1.1055-1.0742 1.418s-1.1602 0.39844-1.7617 0.24219l-4.5273-1.1875c-0.60156-0.15625-1.1055-0.53906-1.418-1.0742-0.3125-0.53516-0.39844-1.1602-0.24219-1.7617 0.18359-0.70312 0.6875-1.2695 1.3398-1.5508 0.023437 0.03125 0.042969 0.066406 0.066406 0.097656 0.63672 0.82812 1.5547 1.3633 2.5938 1.5l4.6406 0.61328c0.0625 0.007813 0.12109 0.011719 0.17969 0.019531 0.27734 0.51172 0.35547 1.1055 0.20312 1.6836zm2.4336-5.2773c-0.16797 1.2695-1.3398 2.168-2.6094 2l-4.6406-0.61328c-0.61719-0.082031-1.1641-0.39844-1.5391-0.89062-0.37891-0.49219-0.53906-1.1016-0.46094-1.7188 0.10938-0.8125 0.63281-1.5 1.3711-1.8242 0.45703 0.23438 0.95312 0.39453 1.4805 0.46484l5.6328 0.74609c0.074218 0.011719 0.15234 0.015625 0.22656 0.023437 0.42578 0.49219 0.625 1.1523 0.53906 1.8125zm2.7969-5.9844c-0.21484 1.6328-1.7227 2.7891-3.3555 2.5742l-5.6328-0.74609c-0.79297-0.10547-1.4961-0.51172-1.9805-1.1445-0.48438-0.63281-0.69531-1.418-0.58984-2.2109 0.039062-0.28906 0.12109-0.55859 0.23438-0.81641 0.27734 0.050781 0.56641 0.082031 0.85938 0.082031 0.67969 0 1.3281-0.14844 1.918-0.41797 0.375 0.082031 0.75781 0.125 1.1445 0.125h4.3008c0.63281 0 1.2422-0.11328 1.8047-0.31641 0.92969 0.62109 1.4453 1.7344 1.2969 2.8711zm0.57422-7.8281c0 2.0312-1.6523 3.6797-3.6797 3.6797l-3.6445 0.003906c0.41016-0.55078 0.70312-1.1953 0.83594-1.9062 0.32422-1.7188 0.57422-3.6328 0.57812-5.457h2.2305c2.0273 0 3.6797 1.6523 3.6797 3.6797zm-3.1016-11.691c0 1.7305-1.4062 3.1367-3.1367 3.1367-0.20703 0-0.41016-0.023438-0.60938-0.0625-0.36328-0.71875-0.85156-1.332-1.4883-1.7852-0.30469-0.21875-0.625-0.40625-0.95703-0.57031-0.054688-0.23438-0.085938-0.47656-0.085938-0.72266v-4.7031h6.2734zm8.8906-12.523v4.2227c0 1.1094-0.90234 2.0117-2.0117 2.0117h-20.035c-1.1094 0-2.0117-0.90234-2.0117-2.0117v-4.2227c0-1.1094 0.90234-2.0117 2.0117-2.0117h20.031c1.1133 0 2.0156 0.90234 2.0156 2.0117zm-11.234-3.6016v-20.973h7.2617v20.977zm9.707-24.211c0 0.91016-0.74219 1.6523-1.6523 1.6523h-17.699c-0.91016 0-1.6523-0.74219-1.6523-1.6523l0.003906-3.3906c0-0.91016 0.74219-1.6523 1.6523-1.6523h17.699c0.91016 0 1.6523 0.74219 1.6523 1.6523zm20.465 11.336v-6.1641h13.672v6.1641zm13.672-7.75h-13.672v-2.8945h13.672zm2.543-4.4805h-18.758v-6.4062h18.758z"/>
</svg>