<svg xmlns="http://www.w3.org/2000/svg" version="1.1" viewBox="-5.0 -10.0 110.0 135.0">
 <path d="m25.383 51.215c-6.082 6.457-9.7109 13.723-10.773 21.59-0.074219 0.54687-0.54297 0.94531-1.0781 0.94531-0.050781 0-0.097656-0.003906-0.14844-0.011719-0.59766-0.082031-1.0156-0.63281-0.93359-1.2305 1.1016-8.1094 4.7539-15.602 10.863-22.27-2.6445-6.2812-4.9219-13.383-5.375-22.672-1.3125 1.1172-2.6055 2.0859-3.8906 2.9336-0.13672 2.3984-0.71484 4.5977-1.7383 6.5312-0.19531 0.37109-0.57422 0.58203-0.96484 0.58203-0.17188 0-0.34766-0.039062-0.50781-0.12891-0.53125-0.27734-0.73828-0.94141-0.45313-1.4727 0.65234-1.2383 1.082-2.6172 1.3164-4.1016-1.8203 0.98438-3.6055 1.7031-5.3477 2.125-0.085937 0.019532-0.17187 0.03125-0.25781 0.03125-0.49219 0-0.9375-0.33594-1.0586-0.83594-0.14062-0.58594 0.21875-1.1758 0.80469-1.3164 3.7539-0.90234 7.793-3.3359 12.02-7.2031-0.035156-4.875 0.42188-10.328 1.5547-16.543 0.10547-0.59375 0.68359-0.98047 1.2695-0.87891 0.59375 0.10938 0.98438 0.67969 0.87891 1.2695-3.6016 19.738-0.1875 31.594 4.0352 41.465 0.16406 0.41406 0.082032 0.87109-0.21484 1.1914zm3.043 8.1211c-5.0273 2.9492-8.8125 8.2461-11.246 15.73-0.1875 0.57422 0.125 1.1875 0.69922 1.375 0.57422 0.1875 1.1875-0.12891 1.375-0.69922 2.1133-6.4961 5.2656-11.188 9.3789-13.961 3.7539 6.1875 6.9688 16.082 2.6133 29.398-0.1875 0.57031 0.125 1.1875 0.69531 1.3789 0.11328 0.035156 0.22656 0.054687 0.33984 0.054687 0.46094 0 0.88672-0.29297 1.0352-0.75391 4.8477-14.812 0.80859-25.672-3.4297-32.18-0.31641-0.49219-0.96094-0.64453-1.4609-0.34375zm1.7383-40.023c2.2969 5.8672 5.7695 7.1055 9.4453 8.4219 3.3594 1.1992 7.1719 2.5625 11.355 7.7461 0.21484 0.26953 0.53125 0.40625 0.85156 0.40625 0.23828 0 0.48047-0.078125 0.68359-0.23828 0.46875-0.38281 0.54297-1.0664 0.16406-1.5352-2.7773-3.4414-5.4531-5.3555-7.9023-6.6055 1.7852-0.33984 3.4414-0.92969 4.9688-1.7578 4.5391 0.63281 6.2734 1.5547 6.918 2.2227 0.21484 0.22266 0.5 0.33594 0.78516 0.33594 0.26953 0 0.54688-0.10156 0.75781-0.30469 0.43359-0.41797 0.44531-1.1094 0.027344-1.543-1.0391-1.0781-2.9766-1.8945-5.8633-2.4766 0.32812-0.26953 0.65625-0.54297 0.96875-0.83984 0.4375-0.42188 0.45312-1.1094 0.035156-1.5469-0.41406-0.4375-1.1055-0.44922-1.543-0.035156-3.0352 2.8945-6.7969 4.2344-11.504 4.1055-3.5469-1.2656-6.125-2.1992-8.0469-6.9688-0.054687-3.1133 0.12109-6.5508 0.51562-10.211 0.066406-0.59766-0.36719-1.1367-0.96875-1.1992-0.58594-0.066406-1.1367 0.36719-1.1992 0.96875-0.41406 3.8281-0.58984 7.4219-0.52344 10.684 0 0.125 0.027344 0.25391 0.074218 0.37109zm-4.0195 19.57 0.042969 0.19141 0.39062 1.3438 0.19141 0.69141 0.21484 0.67188 0.19531 0.67188 0.21875 0.66797 0.019531 0.019531c0.17188 0.58594 0.80078 0.91016 1.3828 0.71484 0.5625-0.19141 0.88672-0.80078 0.69141-1.3828v-0.042968l-0.21875-0.64453-0.19141-0.64844-0.19531-0.64453-0.19141-0.67188-0.19531-0.65625-0.17188-0.67187-0.066406-0.17188c-0.14844-0.58594-0.73438-0.92969-1.3398-0.77734-0.58203 0.15234-0.92969 0.75781-0.77734 1.3398zm-1.2734-16.527c0.60547 0 1.1016-0.49609 1.1016-1.1016v-1.207l0.019532-0.39062v-0.36719l0.019531-0.39062v-0.38672l0.023437-0.39062 0.019532-0.39062 0.019531-0.40625 0.019531-0.39062c0.042969-0.60547-0.41016-1.1211-1.0156-1.1641s-1.1211 0.43359-1.168 1.0352l-0.019531 0.39453-0.015625 0.40234-0.019531 0.41016-0.019531 0.39062-0.019532 0.41016v0.41016l-0.023437 0.39062v0.39062l-0.019531 0.41016v0.84375c-0.003907 0.59766 0.49219 1.0977 1.0977 1.0977zm4.9258 27.289 0.25781 0.625 0.26172 0.64844 0.26172 0.64453 0.28125 0.625 0.28125 0.62891 0.25781 0.64844 0.023437 0.019531c0.23828 0.53906 0.88672 0.80078 1.4492 0.5625 0.53906-0.23438 0.80078-0.88672 0.5625-1.4453l-0.019532-0.019531-0.26172-0.62891-0.27734-0.62891-0.26172-0.62891-0.51562-1.2578-0.26172-0.62891-0.085938-0.23828c-0.23828-0.5625-0.86328-0.84375-1.4258-0.60547-0.5625 0.21484-0.84375 0.86328-0.62891 1.4258zm-4.6875-22.906c-0.60547 0.042969-1.0586 0.58203-0.99219 1.1875l0.019531 0.13281 0.019531 0.36719 0.085938 0.73438 0.066406 0.36719 0.12891 1.1016 0.0625 0.36719 0.042969 0.34766 0.13281 0.73438 0.042969 0.28125c0.085938 0.58203 0.67188 0.99609 1.2539 0.88672 0.60547-0.089844 1.0156-0.64844 0.90625-1.2539l-0.042968-0.28125-0.066407-0.34766-0.042969-0.34766-0.0625-0.34766-0.042968-0.36719-0.042969-0.34375-0.066406-0.34766-0.042969-0.36719-0.042969-0.34375-0.042969-0.34766-0.042968-0.36719-0.023438-0.36719-0.019531-0.10547c-0.066406-0.60547-0.58203-1.0352-1.1875-0.97266zm69.789 46.848c-0.18359 0.40234-0.57813 0.63672-0.99219 0.63672-0.15234 0-0.30859-0.03125-0.45312-0.10156l-9.0664-4.1719c-0.37109 0.11328-0.74609 0.23828-1.1328 0.36328-4.1406 1.3633-9.2891 3.0625-16.617-3.5469l-5.9648-2.7617c-1.1484-0.52734-1.8906-1.4141-2.1836-2.4492-0.38281 0.10937-0.76953 0.23437-1.1523 0.35937-2.4609 3.1133-6.1523 5.0234-10.098 5.2578 0.28516 1.6367 0.44922 3.2969 0.49219 4.9844 2.1055 2.0195 3.8555 4.0664 5.2422 6.1484 2.3594 0.29297 4.6133 1.2031 6.7031 2.7344 0.48438 0.35547 0.58984 1.0391 0.23438 1.5234-0.21484 0.28906-0.54688 0.44531-0.88281 0.44531-0.22656 0-0.44922-0.066406-0.64453-0.21484-1.2695-0.92969-2.5625-1.5781-3.918-1.9727 1.1055 2.1133 1.8477 4.25 2.2031 6.4023 0.10156 0.59375-0.30078 1.1523-0.89453 1.2539-0.0625 0.011719-0.12109 0.015626-0.17969 0.015626-0.52344 0-0.98438-0.37891-1.0742-0.91016-0.42969-2.5703-1.4727-5.1406-3.1094-7.6836-0.011718-0.019532-0.023437-0.035157-0.035156-0.058594-1.0117-1.5625-2.2383-3.1133-3.6953-4.6523-0.30469 5.1797-1.6992 10.695-4.2383 16.844-0.17188 0.42188-0.57812 0.67188-1.0078 0.67188-0.13672 0-0.27734-0.023437-0.41406-0.082031-0.55859-0.23047-0.82422-0.86719-0.59375-1.4258 3.7969-9.2031 4.9375-16.887 3.5742-24.094-2.1445-0.23047-4.1953-0.94922-5.9922-2.0898 0.80078 2.3711 1.2148 4.6367 1.2148 6.7617 0 0.60547-0.48828 1.0938-1.0938 1.0938-0.60156 0-1.0938-0.48828-1.0938-1.0938 0-3.2148-1.0547-6.8281-3.1367-10.746-0.011719-0.019532-0.019532-0.050782-0.027344-0.070313-0.011719-0.023437-0.023438-0.050781-0.035156-0.078125l-0.55078-1.1367-0.12891-0.26172c-0.26172-0.53906-0.019531-1.2109 0.53906-1.4727 0.54297-0.25781 1.1875-0.019531 1.4492 0.53906l0.12891 0.23828 0.20312 0.43359 5.4883-1.457c-0.87891-2-1.8477-3.9883-2.8711-6.0703-2.6016-5.3008-5.293-10.777-7.0742-17.789-0.074219-0.30078-0.019531-0.61719 0.14844-0.87891 0.17578-0.25781 0.44531-0.42969 0.75391-0.47266 5.2031-0.73047 10.676 0.67578 16.266 4.1758 0.51172 0.32031 0.66406 0.99219 0.34766 1.5039-0.32031 0.51172-0.99609 0.66406-1.5039 0.34766-4.6953-2.9375-9.2578-4.2773-13.574-3.9883 1.7227 6.2227 4.1992 11.262 6.5977 16.141 0.19531 0.39844 0.38672 0.78906 0.57812 1.1836 0.20703-1.2461 1.0117-2.3633 2.2422-2.8984 0.046875-0.019531 0.09375-0.035156 0.14453-0.054687l20.723-5.7461c2.0625-0.58594 3.8984-0.41406 5.4492 0.5l6.125 3.5391c2.1562-0.57031 4.4414-1.1758 7.0195-1.8594 1.4219-0.37109 3.2109 0 4.6562 0.98438 1.2148 0.81641 1.9609 1.918 2.1055 3.0898 0.26172 1.9375-0.25391 3.7148-1.3281 4.9609l5.6758 3.2812c0.52344 0.30469 0.69922 0.97266 0.39844 1.4922-0.20312 0.35156-0.56641 0.54297-0.94531 0.54297-0.1875 0-0.375-0.046875-0.54688-0.14453l-6.5195-3.7734c-0.21484 0.089844-0.43359 0.17188-0.66797 0.23047-4.4844 1.1875-8.1055 2.1484-11.668 3.0977 0.10938 0.050781 0.21484 0.10156 0.30469 0.1875 0.44531 0.40625 0.47656 1.0977 0.070313 1.5391-1.0469 1.1445-2.6758 1.4805-4.0547 0.83984l-2.4258-1.1211c-0.019531-0.007812-0.039063-0.019531-0.058594-0.027343l-4.5742-2.1094c-1.4961-0.6875-2.6367 0.34766-3.0312 1.2109-0.17578 0.37891-0.62109 1.6641 0.85156 2.3398l6.1211 2.832c0.10156 0.046875 0.19531 0.10938 0.27734 0.18359 6.4492 5.8828 10.59 4.5195 14.59 3.1992 0.54297-0.17969 1.0742-0.35156 1.5938-0.50391 0.25391-0.070312 0.51953-0.050781 0.76172 0.058594l9.4414 4.3438c0.54688 0.26172 0.78516 0.91016 0.53516 1.457zm-21.773-14.043c-0.36719 0.097656-0.73438 0.19531-1.1055 0.29297 0.38672 0.082031 0.78906-0.023438 1.1055-0.29297zm3.4961-10.094c-0.10156 0.046875-0.21094 0.074219-0.32031 0.089843-5.3398 1.4141-9.9336 2.6406-16.191 4.3125l0.054687 0.19531c0.003907 0.011719 0.007813 0.015625 0.007813 0.023437 0.003906 0.011719 0.003906 0.019532 0.003906 0.027344l0.66016 2.4531c1.082-0.57031 2.4219-0.70312 3.832-0.058593l4.1758 1.9297c5.4297-1.4453 10.16-2.7031 16.762-4.4531 1.9219-0.51172 2.5586-2.5352 2.332-4.1992-0.066406-0.54688-0.49219-1.1094-1.1641-1.5664-0.91406-0.61719-2.0703-0.89453-2.8789-0.67969-2.6758 0.70703-5.0391 1.3359-7.2734 1.9258zm-32.77 3.6641c0.3125 0.83984 1.1953 1.2773 2.0469 1.0195 0.046874-0.015624 0.09375-0.023437 0.14062-0.03125l12.504-2.0898c5.793-1.5508 10.141-2.7109 14.793-3.9414l-4.2383-2.4492c-1.0391-0.61328-2.2695-0.70703-3.7578-0.28516l-20.645 5.7266c-0.76562 0.36719-1.1328 1.2539-0.84375 2.0508zm0.25391 4.1016 5.875-1.5625-3.5156 0.58984c-0.34766 0.10156-0.69531 0.14453-1.0469 0.14453-0.67969 0-1.3359-0.1875-1.9141-0.52344 0.20703 0.44922 0.40234 0.90234 0.60156 1.3516zm14.469 2.0547c0.054687-0.16406 0.097656-0.32422 0.17188-0.48438 0.082031-0.18359 0.18359-0.35938 0.28906-0.53125l-0.6875-2.5625-20.59 5.4727c2.1445 2.3555 5.1953 3.7695 8.4297 3.8555 3.793 0.050781 7.3633-1.6758 9.6211-4.6875 0.13281-0.17969 0.31641-0.3125 0.52734-0.38281 0.75781-0.25 1.5039-0.47266 2.2383-0.67969z"/>
</svg>